<?xml version="1.0" standalone="no"?>
<!DOCTYPE svg PUBLIC "-//W3C//DTD SVG 20010904//EN"
 "http://www.w3.org/TR/2001/REC-SVG-20010904/DTD/svg10.dtd">
<svg version="1.0" xmlns="http://www.w3.org/2000/svg"
 width="128.000000pt" height="128.000000pt" viewBox="0 0 128.000000 128.000000"
 preserveAspectRatio="xMidYMid meet">
<metadata>
Created by potrace 1.11, written by Peter Selinger 2001-2013
</metadata>
<g transform="translate(0.000000,128.000000) scale(0.100000,-0.100000)"
fill="#000000" stroke="none">
<path d="M533 1250 c-226 -41 -409 -199 -487 -420 -26 -75 -30 -98 -30 -195 0
-97 4 -120 30 -195 67 -191 212 -336 399 -397 110 -36 257 -38 365 -4 143 43
277 146 356 272 90 144 114 351 61 514 -80 243 -304 415 -557 429 -47 3 -108
1 -137 -4z"/>
</g>
</svg>
