<svg xmlns="http://www.w3.org/2000/svg" width="400" height="230">
  <path fill="#1566a3" d="M0 114.7V0h400v230H0z"/>
  <path fill="#0e4670" d="M55 215v15H38v-5zm210-23v-73c43.4 26 87.5 49.7 132 73.8V230h-67zM68 207l16-8v18l-16 9zm-58-3l15-8v18l-15 8zm87-13l17-10v19l-17 10zm-59-3l17-9v18l-17 10zm92-73c-21-12-43.3-23-64-35V2c44.8 25 90.6 51 129 73v79l-65 37zm-62 55l16-9v19.4l-15.7 9zm189 17l-13-8 13-7zM97.4 154l16.5-9v18l-17 8.7zm114.6 7l15-9v18zm29-16l15-9v17l-15 10zm-29-21l17-9v17l-17 9zm28-16l16-9v17.8l-16 9.2zm30-17l15-9v19l-15 8zm-58-5l17-9v18l-17 9zm87-11l16-10v19l-16 9zm-59-3.8l16-8.2v18l-16 9zM331 0h66v41c-22 12-47 26-66 37zM40 65l15-7v15zm229-9l16-9v18l-16 9zM10 47l15-8v17zm289-7l16-9v17l-16 9zM38 31l17-10v19L38 50zM9 10c6-3 10.4-6 16-9v19c-5.6 3.2-10.4 6-16 9zm29 3V0h16v3z"/>
  <path fill="#0b3758" d="M335 215l17 8v7h-17zm-29 1v-17l17 9v18zm59-2v-18l16 9v18zm-88-15v-18l17 10v18zm58-2v-18l17 9v18zm-29-17v-17l17 9v17zm-168-8l13 7-13 7zm139-8v-17l17 9v17zm-109-12l14 9-14 8zm-29 3v-19l13 8v19zm28-21v-18l16 8v18zm-28-17v-17l15 8v18zm-29-16V83l15 8v18zm57-4V78l16 10v18zM80 84V65l15 9v18zm58-3V62l16 9v18zm-29-17V45l15 9v19zm227-7l16 9-16 9zM80 47V30l15 7v19zm286-5l15 8-15 8zm-30 0V25l16 9v17zm30-21V5l15 6v18zM336 0h16v15l-16-7z"/>
  <path fill="#062135" d="M70 230l127-74 128 74zm200-112l130-73v145zM0 45l126 71L0 190zM70 0l125 69.3L325 0z"/>
</svg>


