<?xml version="1.0" encoding="UTF-8" standalone="no"?>
<svg width="229px" height="106px" viewBox="0 0 229 106" version="1.1" xmlns="http://www.w3.org/2000/svg" xmlns:xlink="http://www.w3.org/1999/xlink" xmlns:sketch="http://www.bohemiancoding.com/sketch/ns">
    <!-- Generator: Sketch 3.2.2 (9983) - http://www.bohemiancoding.com/sketch -->
    <title>2</title>
    <desc>Created with Sketch.</desc>
    <defs></defs>
    <g id="Page-1" stroke="none" stroke-width="1" fill="none" fill-rule="evenodd" sketch:type="MSPage">
        <g id="Artboard-1" sketch:type="MSArtboardGroup" transform="translate(-1325.000000, -243.000000)" fill="#FFFFFF">
            <g id="2" sketch:type="MSLayerGroup" transform="translate(1325.000000, 243.000000)">
                <g id="Imported-Layers-+-Imported-Layers" sketch:type="MSShapeGroup">
                    <g id="Imported-Layers">
                        <path d="M35.0273487,97.0387184 C37.5073241,98.0324333 40.132115,98.7369103 42.8906947,99.1202778 C42.8860992,98.7258497 42.7656336,98.3710294 42.5696718,98.1142386 C39.7379084,97.6844935 37.0289084,96.8418366 34.4354504,95.743049 C34.3890705,95.7235296 34.3427369,95.7038985 34.2964499,95.6841557 L34.2964499,95.6841557 C34.2885462,95.6590625 34.2801509,95.635302 34.2729695,95.6139935 C34.1347786,95.076317 34.0077481,94.3845 33.9164962,94.2296993 C34.1278855,92.5985163 34.1081908,91.0485294 33.6801603,89.4265882 C33.265916,87.8716503 32.5283511,86.3315654 31.7441756,85.2123137 C30.5966336,83.4900327 28.8145954,82.087585 27.2436183,81.2875065 C27.1569618,81.2607712 27.0699771,81.2148922 26.9898855,81.1957484 C27.0233664,81.3594608 27.0699771,81.5083203 27.09,81.6773137 C27.7248244,85.223866 27.9010916,88.7288301 29.5364046,91.7093203 C30.7193969,93.4411732 32.5217863,94.7627549 33.5577252,94.5165261 C33.7084311,94.8356723 33.7528495,95.1592512 33.8308842,95.4811262 C30.1894872,93.858133 26.8433934,91.5410419 23.8767887,88.6640499 C23.8798854,88.6111557 23.8781231,88.555945 23.8817405,88.5080163 C23.8817405,87.9482255 23.8505573,87.1167908 23.819374,86.9019183 C24.4679847,85.3829575 24.8152672,83.8996438 24.8352901,82.123232 C24.8464504,80.436268 24.6170076,78.6753693 24.1893053,77.2537778 C23.5699084,75.0773268 22.2644809,72.8609379 20.9587252,71.4294444 C20.8940611,71.3621111 20.8097023,71.295768 20.7427405,71.2244739 C20.7315802,71.4079902 20.738145,71.5829248 20.7115573,71.7463072 C20.3216031,75.5390882 19.5039466,79.2453922 20.2526718,82.8467353 C20.9075191,85.0891993 22.3179847,86.7157614 23.3851069,87.0550686 C23.4519264,87.4567226 23.4559588,87.8637775 23.468993,88.2626632 L23.468993,88.2626632 C20.7083881,85.504996 18.2877712,82.2562711 16.277451,78.628564 C16.3001914,78.5676085 16.3134494,78.4939075 16.3314656,78.4334314 C16.4696565,77.9102778 16.5674733,77.037915 16.583229,76.8484575 C17.5791221,75.5961895 18.2720458,74.2663562 18.7355267,72.5929248 C19.1809542,70.9518399 19.3946412,69.1856601 19.3434351,67.6624085 C19.2879618,65.3380882 18.6104656,62.7606078 17.7215802,60.9191732 C17.6680763,60.8419379 17.6303282,60.7485294 17.5791221,60.6679935 C17.5167557,60.8313758 17.4655496,60.9950882 17.4251756,61.1495588 C16.0931603,64.6545229 14.433229,68.0274608 14.2661527,71.7529085 C14.4155038,74.2105752 15.1639008,76.2210033 16.126313,76.8329444 C16.0974602,77.2292846 16.0450198,77.6643844 15.976174,78.0763389 L15.976174,78.0763389 C13.891841,74.1953916 12.2713868,69.895985 11.1982484,65.3111219 C11.4609848,65.104174 11.9036961,63.8423687 11.9891221,63.5927026 C13.2768244,62.7648987 14.3130916,61.7555588 15.1862214,60.2828072 C16.0304656,58.8859706 16.6856412,57.2607288 17.057542,55.7817059 C17.6126031,53.565317 17.6303282,50.8442582 17.2761527,48.7968627 C17.2538321,48.6948725 17.240374,48.586281 17.2091908,48.4833007 C17.1090763,48.6176373 17.0174962,48.7565948 16.9193511,48.8952222 C14.8566641,51.8057386 12.2897939,54.4469216 11.138313,57.9571667 C10.4430916,60.3475 10.7391679,62.6431046 11.5971985,63.4593562 C11.4345344,63.8725622 11.2453299,64.3215066 11.066353,64.7338019 L11.066353,64.7338019 C10.134251,60.551789 9.65572126,56.1392976 9.69311252,51.5957144 L9.69311252,51.5957144 C9.97750563,51.4811288 10.6024931,50.4471675 10.719145,50.2438693 C12.113855,49.8339281 13.3014427,49.1866699 14.433229,48.0373824 C15.5161069,46.919451 16.4604656,45.5638725 17.0998855,44.2099444 C18.0892137,42.213049 18.635084,39.5540425 18.6951527,37.4297418 C18.706313,37.3062974 18.6951527,37.1993562 18.6839924,37.0953856 C18.5681221,37.2095882 18.4568473,37.3119085 18.3432748,37.4244608 C15.7878931,39.5853987 13.1586565,41.0934673 11.352,44.1841993 C10.2202137,46.303549 9.99536641,48.5189477 10.4696794,50.0547418 C10.2520204,50.3909717 9.965942,50.6691987 9.70147402,50.9721538 C9.71362766,50.3182202 9.73647179,49.6616788 9.77019084,49.0028235 C9.9519963,45.1438691 10.5197138,41.2959403 11.4358755,37.550527 C11.7470277,37.4960575 12.50878,36.7687765 12.6577557,36.6299935 C14.0074962,36.7009575 15.235458,36.4765131 16.5162672,35.7728137 C17.7461985,35.1103725 18.9268931,34.1251275 19.8026489,33.0936732 C21.1550153,31.5585392 22.2644809,29.2804281 22.8123206,27.3353529 C22.8435038,27.2330327 22.8658244,27.1300523 22.8904427,27.027402 C22.7499542,27.0788922 22.6209542,27.1505163 22.4939237,27.2072876 C19.6867786,28.3879314 16.5986565,29.1510425 14.2661527,31.4199118 C12.7513053,33.0207288 12.3725115,34.7100033 12.486084,36.3880556 C12.2099803,36.6021422 11.879921,36.7726604 11.5799272,36.9737191 L11.5799272,36.9737191 C12.6219492,32.8854583 14.0792193,28.9256826 15.9025866,25.2144099 L15.9025866,25.2144099 C15.9043211,25.2166151 15.9061355,25.2186895 15.9080305,25.2206242 C16.0573817,25.3952288 17.0778931,24.8671242 17.2561298,24.7690948 C18.4568473,25.2318464 19.5863359,25.3744346 20.883229,25.1291961 C22.1262901,24.8829673 23.375916,24.3641046 24.3875649,23.6815294 C25.9070076,22.7015654 27.3818092,20.9875359 28.3022061,19.4009118 C28.3353588,19.3187255 28.3777023,19.2411601 28.4177481,19.164585 C28.295313,19.1764673 28.1728779,19.1857092 28.034687,19.1959412 C25.2945038,19.4425 22.3757557,19.2160752 19.8134809,20.5815556 C18.1292595,21.5578889 17.2915802,22.9788203 17.1514198,24.4925 C16.8270801,24.6398556 16.4328172,24.7288849 16.0830697,24.8502591 C17.6763922,21.6634226 19.5408627,18.6643786 21.6449443,15.930135 L21.6449443,15.930135 C21.8380774,16.1001819 22.8129042,15.8422075 22.9816947,15.7734935 C24.1092137,16.5227418 25.214084,16.8247516 26.5106489,16.8561078 C27.7494427,16.897366 29.0151527,16.6511373 30.0622519,16.2038987 C31.6329008,15.5632418 33.2301374,14.2740065 34.2618092,12.8626471 C34.3195802,12.7854118 34.3796489,12.7243497 34.4154275,12.6431536 C34.2929924,12.6375425 34.1548015,12.6273105 34.0346641,12.6015654 C31.5813664,12.2579673 29.2912061,11.6166503 27.2124351,12.0364935 C25.4835725,12.3965948 23.5899313,13.3296895 22.9170305,15.4761046 C22.5972523,15.5425152 22.2345191,15.5735415 21.8953969,15.6073722 C23.490198,13.5691718 25.2195146,11.6821211 27.0699771,9.97886601 C27.1080534,9.91780392 27.09,9.94321895 27.0387939,9.91285294 C27.1211832,9.94321895 27.1257786,9.91780392 27.2748015,9.82472549 C27.5712061,9.55275163 27.8164046,9.3834281 28.1128092,9.11112418 C29.7812748,9.12300654 31.3588168,8.62988889 32.8536412,7.6245098 C33.5176794,7.17166013 34.1790916,6.63299346 34.7361221,5.98606536 C36.0641985,4.54962092 37.1355878,2.45040523 37.6256565,0.526124183 C37.6502748,0.417862745 37.6702977,0.341287582 37.6771908,0.233686275 C37.5547557,0.285176471 37.440855,0.341287582 37.3184198,0.398388889 C34.6248473,1.48100327 32.0271221,1.98897386 29.8639924,4.09182026 C28.4000229,5.49393791 27.6312748,7.19707516 27.9388397,8.85037255 C27.6069847,9.11706536 27.2547786,9.36329412 26.9383511,9.67652614 C26.8916245,9.71096238 26.8747816,9.7457956 26.8763494,9.77775613 L26.8763494,9.77775613 C26.8644241,9.76990795 26.8458115,9.78580318 26.8205115,9.81548366 C24.4033728,12.1115046 22.1793807,14.6240652 20.1839625,17.328828 L20.1839625,17.328828 C20.2385781,16.9328793 20.2732199,16.5614082 20.3439237,16.1322745 C22.3980763,13.9363497 23.5587481,11.7598987 24.2047328,8.79393137 C24.855313,5.68867647 24.7640611,3.21549673 24.4788168,1.48100327 C24.4476336,1.2710817 24.3921603,1.05983987 24.3340611,0.843647059 C22.529374,2.29197386 21.2574275,4.20074183 20.1745496,6.38082353 C19.6086565,7.55717647 19.149771,8.77313725 18.936084,10.0970294 C18.4880305,12.0322026 18.6173588,14.8806667 20.0521145,16.0454673 C20.0009084,16.2966471 19.8761756,17.1637288 19.8604198,17.3488954 C19.8189361,17.5149487 19.7804684,17.6814353 19.8549694,17.7793851 C17.5182021,21.0128006 15.5057902,24.5147467 13.8768588,28.2446065 C13.8924176,27.8552561 13.905141,27.4429032 13.9208397,27.1092582 C15.391374,24.5994412 16.1755496,21.8754118 16.2132977,18.7444118 C16.2713969,15.1315163 15.377916,12.836902 14.6692366,11.3859346 C14.575687,11.190866 14.4801679,10.9954673 14.3843206,10.8056797 C13.6067099,11.7549477 12.8737405,13.5617255 12.5418855,14.6859281 C11.8620916,16.9389542 11.3720229,19.2834085 11.3119542,21.6602092 C11.2607481,23.7280686 11.7485191,26.0365458 13.4796794,27.3706699 C13.4662214,27.5756405 13.4284733,28.5826699 13.417313,28.7216275 C13.3948397,28.8687708 13.3991892,29.0506775 13.493585,29.1434632 L13.493585,29.1434632 C12.042723,32.6298452 10.9245537,36.3087664 10.1859846,40.1480033 L10.1859846,40.1480033 C10.1096284,39.7752873 10.0206594,39.384334 9.9530229,39.0054739 C10.6167328,36.5676111 10.9800992,34.3413203 10.8619313,31.9486765 C10.6790992,28.593232 9.43144275,25.6833758 7.4731374,23.3316601 C7.32608397,23.1580458 7.20364885,22.9831111 7.07005344,22.8246797 C6.51761832,23.9782582 6.15654962,25.9593105 6.0541374,27.1399542 C5.85128244,29.552732 5.86014504,31.9744216 6.27898473,34.3258072 C6.6420229,36.3319444 7.53780153,38.3588758 9.53385496,39.2302484 C9.55617557,39.4414902 9.78364885,40.4165033 9.81253435,40.5653627 C9.81253435,40.7534614 9.87011693,40.96516 10.0320634,40.9815183 C9.76642477,42.4824392 9.55862592,44.0072203 9.41141985,45.5539706 C9.18201708,48.0237347 9.05300262,50.458899 9.04589969,52.8481004 C8.91814496,52.6101838 8.78562671,52.3733572 8.65612977,52.1024673 C8.85668702,48.6489935 8.65612977,46.1230033 7.34183969,43.2751993 C5.85128244,39.9953399 3.78826718,38.1179281 2.52715267,37.1937451 C2.36893893,37.0561078 2.19529771,36.9415752 2.01246565,36.8253922 C1.72754962,38.1581961 1.81223664,40.2372778 1.99244275,41.4380556 C2.32232824,43.8907712 2.84817557,46.0121013 3.81945038,48.2076961 C4.65483206,50.0851078 6.14538931,52.1536275 8.33083969,52.2915948 C8.40009924,52.4820425 8.79891603,53.3903824 8.85668702,53.5339608 C8.88584412,53.6611529 8.95490907,53.7970749 9.05016319,53.850497 L9.05016319,53.850497 C9.09965752,58.1250139 9.55346279,62.2456242 10.5368877,66.146173 C10.3955597,65.972041 10.249418,65.7952022 10.0954809,65.6143529 C9.46262595,62.2216111 8.53369466,59.968915 6.59114504,57.6815621 C4.34989313,55.0628235 2.04364885,53.8891111 0.624648855,53.4006144 C0.412931298,53.3388922 0.225832061,53.287402 0.0210076336,53.2256797 C-0.119480916,54.5340588 0.479564885,56.4385359 0.949938931,57.5373235 C1.8631145,59.7540425 2.85474046,61.7030784 4.40077099,63.4798203 C5.66648092,64.9895392 7.66712977,66.4659216 9.83025954,65.892268 C9.93726718,66.0648922 10.5143206,66.8983072 10.5924427,67.0260425 C10.6496419,67.1207872 10.7377029,67.2137686 10.829697,67.2450083 L10.829697,67.2450083 C10.9109145,67.5339495 10.9951685,67.8216216 11.0825115,68.1079967 C12.3715099,72.2993816 14.0474968,76.2081287 16.0797596,79.7454674 L16.0797573,79.7454633 C15.8517184,79.6239292 15.618747,79.5045687 15.391374,79.3576144 C13.9208397,76.2883366 12.3367328,74.214866 9.91724427,72.6869935 C7.14587786,70.9003497 4.83536641,70.8689935 3.34480916,70.8689935 C3.1330916,70.8689935 2.93483206,70.8792255 2.7231145,70.8858268 C3.09534351,73.9194575 6.81796183,77.9205098 8.89476336,79.214366 C10.4542519,80.2415294 13.2613969,81.0198235 15.1908168,79.7527026 C15.3398397,79.8705359 16.1486336,80.3478105 16.2402137,80.436268 C16.333303,80.5324036 16.4609761,80.6083469 16.5690403,80.5784493 C18.6676204,84.0732642 21.1234784,87.1859722 23.9054536,89.8265073 L23.9054536,89.8265073 C23.6806692,89.8062887 23.4521631,89.7871553 23.2180305,89.7447712 C21.1927634,87.3633497 19.278771,86.0189935 16.5274275,85.5159739 C13.3368931,84.9367092 10.6324885,85.7523007 9.202,86.3573105 C9.00374046,86.4289346 8.79891603,86.516402 8.62067939,86.6141013 C9.13733588,87.7729608 10.6367557,88.9595458 11.5679847,89.5298987 C13.3572443,90.7145033 15.208542,91.5772941 17.3851298,91.9400359 C19.1809542,92.3007974 21.6247328,92.2133301 23.1468015,90.2732059 C23.5298626,90.329317 24.153855,90.4322974 24.5546412,90.4580425 C24.5658297,90.4590898 24.5767809,90.4592207 24.587474,90.4584522 C27.4659193,93.0616283 30.6780543,95.170383 34.1912487,96.6904034 C33.9539304,96.742374 33.7096466,96.7932449 33.4464504,96.8217026 C30.7706031,95.2264967 28.607145,94.5076144 25.8,94.9175556 C22.5651527,95.3799771 20.2214885,97.0121503 18.9561069,98.0482255 C18.7709771,98.2017059 18.5973359,98.3350523 18.4302595,98.4994248 C19.2121374,99.4651961 20.9587252,100.105853 21.9880992,100.377167 C24.0199313,100.952801 26.0205802,101.173614 28.2441069,100.85081 C30.0822748,100.604252 32.477145,99.7520229 33.5219466,97.3808333 C33.8895802,97.272902 34.542458,97.1956667 34.9389771,97.0837745 C34.9732801,97.0774559 35.002734,97.0618727 35.0273487,97.0387184 Z" id="Fill-1"></path>
                    </g>
                    <g id="Imported-Layers" transform="translate(207.500000, 50.500000) scale(-1, 1) translate(-207.500000, -50.500000) translate(186.000000, 0.000000)">
                        <path d="M35.0273487,97.0387184 C37.5073241,98.0324333 40.132115,98.7369103 42.8906947,99.1202778 C42.8860992,98.7258497 42.7656336,98.3710294 42.5696718,98.1142386 C39.7379084,97.6844935 37.0289084,96.8418366 34.4354504,95.743049 C34.3890705,95.7235296 34.3427369,95.7038985 34.2964499,95.6841557 L34.2964499,95.6841557 C34.2885462,95.6590625 34.2801509,95.635302 34.2729695,95.6139935 C34.1347786,95.076317 34.0077481,94.3845 33.9164962,94.2296993 C34.1278855,92.5985163 34.1081908,91.0485294 33.6801603,89.4265882 C33.265916,87.8716503 32.5283511,86.3315654 31.7441756,85.2123137 C30.5966336,83.4900327 28.8145954,82.087585 27.2436183,81.2875065 C27.1569618,81.2607712 27.0699771,81.2148922 26.9898855,81.1957484 C27.0233664,81.3594608 27.0699771,81.5083203 27.09,81.6773137 C27.7248244,85.223866 27.9010916,88.7288301 29.5364046,91.7093203 C30.7193969,93.4411732 32.5217863,94.7627549 33.5577252,94.5165261 C33.7084311,94.8356723 33.7528495,95.1592512 33.8308842,95.4811262 C30.1894872,93.858133 26.8433934,91.5410419 23.8767887,88.6640499 C23.8798854,88.6111557 23.8781231,88.555945 23.8817405,88.5080163 C23.8817405,87.9482255 23.8505573,87.1167908 23.819374,86.9019183 C24.4679847,85.3829575 24.8152672,83.8996438 24.8352901,82.123232 C24.8464504,80.436268 24.6170076,78.6753693 24.1893053,77.2537778 C23.5699084,75.0773268 22.2644809,72.8609379 20.9587252,71.4294444 C20.8940611,71.3621111 20.8097023,71.295768 20.7427405,71.2244739 C20.7315802,71.4079902 20.738145,71.5829248 20.7115573,71.7463072 C20.3216031,75.5390882 19.5039466,79.2453922 20.2526718,82.8467353 C20.9075191,85.0891993 22.3179847,86.7157614 23.3851069,87.0550686 C23.4519264,87.4567226 23.4559588,87.8637775 23.468993,88.2626632 L23.468993,88.2626632 C20.7083881,85.504996 18.2877712,82.2562711 16.277451,78.628564 C16.3001914,78.5676085 16.3134494,78.4939075 16.3314656,78.4334314 C16.4696565,77.9102778 16.5674733,77.037915 16.583229,76.8484575 C17.5791221,75.5961895 18.2720458,74.2663562 18.7355267,72.5929248 C19.1809542,70.9518399 19.3946412,69.1856601 19.3434351,67.6624085 C19.2879618,65.3380882 18.6104656,62.7606078 17.7215802,60.9191732 C17.6680763,60.8419379 17.6303282,60.7485294 17.5791221,60.6679935 C17.5167557,60.8313758 17.4655496,60.9950882 17.4251756,61.1495588 C16.0931603,64.6545229 14.433229,68.0274608 14.2661527,71.7529085 C14.4155038,74.2105752 15.1639008,76.2210033 16.126313,76.8329444 C16.0974602,77.2292846 16.0450198,77.6643844 15.976174,78.0763389 L15.976174,78.0763389 C13.891841,74.1953916 12.2713868,69.895985 11.1982484,65.3111219 C11.4609848,65.104174 11.9036961,63.8423687 11.9891221,63.5927026 C13.2768244,62.7648987 14.3130916,61.7555588 15.1862214,60.2828072 C16.0304656,58.8859706 16.6856412,57.2607288 17.057542,55.7817059 C17.6126031,53.565317 17.6303282,50.8442582 17.2761527,48.7968627 C17.2538321,48.6948725 17.240374,48.586281 17.2091908,48.4833007 C17.1090763,48.6176373 17.0174962,48.7565948 16.9193511,48.8952222 C14.8566641,51.8057386 12.2897939,54.4469216 11.138313,57.9571667 C10.4430916,60.3475 10.7391679,62.6431046 11.5971985,63.4593562 C11.4345344,63.8725622 11.2453299,64.3215066 11.066353,64.7338019 L11.066353,64.7338019 C10.134251,60.551789 9.65572126,56.1392976 9.69311252,51.5957144 L9.69311252,51.5957144 C9.97750563,51.4811288 10.6024931,50.4471675 10.719145,50.2438693 C12.113855,49.8339281 13.3014427,49.1866699 14.433229,48.0373824 C15.5161069,46.919451 16.4604656,45.5638725 17.0998855,44.2099444 C18.0892137,42.213049 18.635084,39.5540425 18.6951527,37.4297418 C18.706313,37.3062974 18.6951527,37.1993562 18.6839924,37.0953856 C18.5681221,37.2095882 18.4568473,37.3119085 18.3432748,37.4244608 C15.7878931,39.5853987 13.1586565,41.0934673 11.352,44.1841993 C10.2202137,46.303549 9.99536641,48.5189477 10.4696794,50.0547418 C10.2520204,50.3909717 9.965942,50.6691987 9.70147402,50.9721538 C9.71362766,50.3182202 9.73647179,49.6616788 9.77019084,49.0028235 C9.9519963,45.1438691 10.5197138,41.2959403 11.4358755,37.550527 C11.7470277,37.4960575 12.50878,36.7687765 12.6577557,36.6299935 C14.0074962,36.7009575 15.235458,36.4765131 16.5162672,35.7728137 C17.7461985,35.1103725 18.9268931,34.1251275 19.8026489,33.0936732 C21.1550153,31.5585392 22.2644809,29.2804281 22.8123206,27.3353529 C22.8435038,27.2330327 22.8658244,27.1300523 22.8904427,27.027402 C22.7499542,27.0788922 22.6209542,27.1505163 22.4939237,27.2072876 C19.6867786,28.3879314 16.5986565,29.1510425 14.2661527,31.4199118 C12.7513053,33.0207288 12.3725115,34.7100033 12.486084,36.3880556 C12.2099803,36.6021422 11.879921,36.7726604 11.5799272,36.9737191 L11.5799272,36.9737191 C12.6219492,32.8854583 14.0792193,28.9256826 15.9025866,25.2144099 L15.9025866,25.2144099 C15.9043211,25.2166151 15.9061355,25.2186895 15.9080305,25.2206242 C16.0573817,25.3952288 17.0778931,24.8671242 17.2561298,24.7690948 C18.4568473,25.2318464 19.5863359,25.3744346 20.883229,25.1291961 C22.1262901,24.8829673 23.375916,24.3641046 24.3875649,23.6815294 C25.9070076,22.7015654 27.3818092,20.9875359 28.3022061,19.4009118 C28.3353588,19.3187255 28.3777023,19.2411601 28.4177481,19.164585 C28.295313,19.1764673 28.1728779,19.1857092 28.034687,19.1959412 C25.2945038,19.4425 22.3757557,19.2160752 19.8134809,20.5815556 C18.1292595,21.5578889 17.2915802,22.9788203 17.1514198,24.4925 C16.8270801,24.6398556 16.4328172,24.7288849 16.0830697,24.8502591 C17.6763922,21.6634226 19.5408627,18.6643786 21.6449443,15.930135 L21.6449443,15.930135 C21.8380774,16.1001819 22.8129042,15.8422075 22.9816947,15.7734935 C24.1092137,16.5227418 25.214084,16.8247516 26.5106489,16.8561078 C27.7494427,16.897366 29.0151527,16.6511373 30.0622519,16.2038987 C31.6329008,15.5632418 33.2301374,14.2740065 34.2618092,12.8626471 C34.3195802,12.7854118 34.3796489,12.7243497 34.4154275,12.6431536 C34.2929924,12.6375425 34.1548015,12.6273105 34.0346641,12.6015654 C31.5813664,12.2579673 29.2912061,11.6166503 27.2124351,12.0364935 C25.4835725,12.3965948 23.5899313,13.3296895 22.9170305,15.4761046 C22.5972523,15.5425152 22.2345191,15.5735415 21.8953969,15.6073722 C23.490198,13.5691718 25.2195146,11.6821211 27.0699771,9.97886601 C27.1080534,9.91780392 27.09,9.94321895 27.0387939,9.91285294 C27.1211832,9.94321895 27.1257786,9.91780392 27.2748015,9.82472549 C27.5712061,9.55275163 27.8164046,9.3834281 28.1128092,9.11112418 C29.7812748,9.12300654 31.3588168,8.62988889 32.8536412,7.6245098 C33.5176794,7.17166013 34.1790916,6.63299346 34.7361221,5.98606536 C36.0641985,4.54962092 37.1355878,2.45040523 37.6256565,0.526124183 C37.6502748,0.417862745 37.6702977,0.341287582 37.6771908,0.233686275 C37.5547557,0.285176471 37.440855,0.341287582 37.3184198,0.398388889 C34.6248473,1.48100327 32.0271221,1.98897386 29.8639924,4.09182026 C28.4000229,5.49393791 27.6312748,7.19707516 27.9388397,8.85037255 C27.6069847,9.11706536 27.2547786,9.36329412 26.9383511,9.67652614 C26.8916245,9.71096238 26.8747816,9.7457956 26.8763494,9.77775613 L26.8763494,9.77775613 C26.8644241,9.76990795 26.8458115,9.78580318 26.8205115,9.81548366 C24.4033728,12.1115046 22.1793807,14.6240652 20.1839625,17.328828 L20.1839625,17.328828 C20.2385781,16.9328793 20.2732199,16.5614082 20.3439237,16.1322745 C22.3980763,13.9363497 23.5587481,11.7598987 24.2047328,8.79393137 C24.855313,5.68867647 24.7640611,3.21549673 24.4788168,1.48100327 C24.4476336,1.2710817 24.3921603,1.05983987 24.3340611,0.843647059 C22.529374,2.29197386 21.2574275,4.20074183 20.1745496,6.38082353 C19.6086565,7.55717647 19.149771,8.77313725 18.936084,10.0970294 C18.4880305,12.0322026 18.6173588,14.8806667 20.0521145,16.0454673 C20.0009084,16.2966471 19.8761756,17.1637288 19.8604198,17.3488954 C19.8189361,17.5149487 19.7804684,17.6814353 19.8549694,17.7793851 C17.5182021,21.0128006 15.5057902,24.5147467 13.8768588,28.2446065 C13.8924176,27.8552561 13.905141,27.4429032 13.9208397,27.1092582 C15.391374,24.5994412 16.1755496,21.8754118 16.2132977,18.7444118 C16.2713969,15.1315163 15.377916,12.836902 14.6692366,11.3859346 C14.575687,11.190866 14.4801679,10.9954673 14.3843206,10.8056797 C13.6067099,11.7549477 12.8737405,13.5617255 12.5418855,14.6859281 C11.8620916,16.9389542 11.3720229,19.2834085 11.3119542,21.6602092 C11.2607481,23.7280686 11.7485191,26.0365458 13.4796794,27.3706699 C13.4662214,27.5756405 13.4284733,28.5826699 13.417313,28.7216275 C13.3948397,28.8687708 13.3991892,29.0506775 13.493585,29.1434632 L13.493585,29.1434632 C12.042723,32.6298452 10.9245537,36.3087664 10.1859846,40.1480033 L10.1859846,40.1480033 C10.1096284,39.7752873 10.0206594,39.384334 9.9530229,39.0054739 C10.6167328,36.5676111 10.9800992,34.3413203 10.8619313,31.9486765 C10.6790992,28.593232 9.43144275,25.6833758 7.4731374,23.3316601 C7.32608397,23.1580458 7.20364885,22.9831111 7.07005344,22.8246797 C6.51761832,23.9782582 6.15654962,25.9593105 6.0541374,27.1399542 C5.85128244,29.552732 5.86014504,31.9744216 6.27898473,34.3258072 C6.6420229,36.3319444 7.53780153,38.3588758 9.53385496,39.2302484 C9.55617557,39.4414902 9.78364885,40.4165033 9.81253435,40.5653627 C9.81253435,40.7534614 9.87011693,40.96516 10.0320634,40.9815183 C9.76642477,42.4824392 9.55862592,44.0072203 9.41141985,45.5539706 C9.18201708,48.0237347 9.05300262,50.458899 9.04589969,52.8481004 C8.91814496,52.6101838 8.78562671,52.3733572 8.65612977,52.1024673 C8.85668702,48.6489935 8.65612977,46.1230033 7.34183969,43.2751993 C5.85128244,39.9953399 3.78826718,38.1179281 2.52715267,37.1937451 C2.36893893,37.0561078 2.19529771,36.9415752 2.01246565,36.8253922 C1.72754962,38.1581961 1.81223664,40.2372778 1.99244275,41.4380556 C2.32232824,43.8907712 2.84817557,46.0121013 3.81945038,48.2076961 C4.65483206,50.0851078 6.14538931,52.1536275 8.33083969,52.2915948 C8.40009924,52.4820425 8.79891603,53.3903824 8.85668702,53.5339608 C8.88584412,53.6611529 8.95490907,53.7970749 9.05016319,53.850497 L9.05016319,53.850497 C9.09965752,58.1250139 9.55346279,62.2456242 10.5368877,66.146173 C10.3955597,65.972041 10.249418,65.7952022 10.0954809,65.6143529 C9.46262595,62.2216111 8.53369466,59.968915 6.59114504,57.6815621 C4.34989313,55.0628235 2.04364885,53.8891111 0.624648855,53.4006144 C0.412931298,53.3388922 0.225832061,53.287402 0.0210076336,53.2256797 C-0.119480916,54.5340588 0.479564885,56.4385359 0.949938931,57.5373235 C1.8631145,59.7540425 2.85474046,61.7030784 4.40077099,63.4798203 C5.66648092,64.9895392 7.66712977,66.4659216 9.83025954,65.892268 C9.93726718,66.0648922 10.5143206,66.8983072 10.5924427,67.0260425 C10.6496419,67.1207872 10.7377029,67.2137686 10.829697,67.2450083 L10.829697,67.2450083 C10.9109145,67.5339495 10.9951685,67.8216216 11.0825115,68.1079967 C12.3715099,72.2993816 14.0474968,76.2081287 16.0797596,79.7454674 L16.0797573,79.7454633 C15.8517184,79.6239292 15.618747,79.5045687 15.391374,79.3576144 C13.9208397,76.2883366 12.3367328,74.214866 9.91724427,72.6869935 C7.14587786,70.9003497 4.83536641,70.8689935 3.34480916,70.8689935 C3.1330916,70.8689935 2.93483206,70.8792255 2.7231145,70.8858268 C3.09534351,73.9194575 6.81796183,77.9205098 8.89476336,79.214366 C10.4542519,80.2415294 13.2613969,81.0198235 15.1908168,79.7527026 C15.3398397,79.8705359 16.1486336,80.3478105 16.2402137,80.436268 C16.333303,80.5324036 16.4609761,80.6083469 16.5690403,80.5784493 C18.6676204,84.0732642 21.1234784,87.1859722 23.9054536,89.8265073 L23.9054536,89.8265073 C23.6806692,89.8062887 23.4521631,89.7871553 23.2180305,89.7447712 C21.1927634,87.3633497 19.278771,86.0189935 16.5274275,85.5159739 C13.3368931,84.9367092 10.6324885,85.7523007 9.202,86.3573105 C9.00374046,86.4289346 8.79891603,86.516402 8.62067939,86.6141013 C9.13733588,87.7729608 10.6367557,88.9595458 11.5679847,89.5298987 C13.3572443,90.7145033 15.208542,91.5772941 17.3851298,91.9400359 C19.1809542,92.3007974 21.6247328,92.2133301 23.1468015,90.2732059 C23.5298626,90.329317 24.153855,90.4322974 24.5546412,90.4580425 C24.5658297,90.4590898 24.5767809,90.4592207 24.587474,90.4584522 C27.4659193,93.0616283 30.6780543,95.170383 34.1912487,96.6904034 C33.9539304,96.742374 33.7096466,96.7932449 33.4464504,96.8217026 C30.7706031,95.2264967 28.607145,94.5076144 25.8,94.9175556 C22.5651527,95.3799771 20.2214885,97.0121503 18.9561069,98.0482255 C18.7709771,98.2017059 18.5973359,98.3350523 18.4302595,98.4994248 C19.2121374,99.4651961 20.9587252,100.105853 21.9880992,100.377167 C24.0199313,100.952801 26.0205802,101.173614 28.2441069,100.85081 C30.0822748,100.604252 32.477145,99.7520229 33.5219466,97.3808333 C33.8895802,97.272902 34.542458,97.1956667 34.9389771,97.0837745 C34.9732801,97.0774559 35.002734,97.0618727 35.0273487,97.0387184 Z" id="Fill-1"></path>
                    </g>
                </g>
                <g id="Group" transform="translate(57.000000, 6.000000)" sketch:type="MSShapeGroup">
                    <path d="M8.2969999,0.424 L11.3329999,0.424 L14.3469999,11.864 L14.3909999,11.864 L17.8229999,0.424 L20.6829999,0.424 L24.0489999,11.864 L24.0929999,11.864 L27.1729999,0.424 L30.1209999,0.424 L25.5669999,16 L22.8829999,16 L19.2309999,4.318 L19.1869999,4.318 L15.5349999,16 L12.8509999,16 L8.2969999,0.424 Z M33.4356666,0.424 L36.2076666,0.424 L36.2076666,16 L33.4356666,16 L33.4356666,0.424 Z M41.1063333,0.424 L44.7803333,0.424 L52.0183333,12.084 L52.0623333,12.084 L52.0623333,0.424 L54.8343333,0.424 L54.8343333,16 L51.3143333,16 L43.9223333,3.966 L43.8783333,3.966 L43.8783333,16 L41.1063333,16 L41.1063333,0.424 Z M59.733,0.424 L63.407,0.424 L70.645,12.084 L70.689,12.084 L70.689,0.424 L73.461,0.424 L73.461,16 L69.941,16 L62.549,3.966 L62.505,3.966 L62.505,16 L59.733,16 L59.733,0.424 Z M78.3596667,0.424 L88.6776667,0.424 L88.6776667,2.844 L81.1316667,2.844 L81.1316667,6.804 L88.2816667,6.804 L88.2816667,9.136 L81.1316667,9.136 L81.1316667,13.536 L89.0736667,13.536 L89.0736667,16 L78.3596667,16 L78.3596667,0.424 Z M93.2463334,0.424 L98.6583334,0.424 C99.3916704,0.424 100.102997,0.50099923 100.792333,0.655 C101.48167,0.80900077 102.093997,1.06199824 102.629333,1.414 C103.164669,1.76600176 103.593665,2.22799714 103.916333,2.8 C104.239002,3.37200286 104.400333,4.06866256 104.400333,4.89 C104.400333,6.01933898 104.081337,6.93966311 103.443333,7.651 C102.80533,8.36233689 101.936339,8.84266542 100.836333,9.092 L104.994333,16 L101.650333,16 L98.0423334,9.4 L96.0183334,9.4 L96.0183334,16 L93.2463334,16 L93.2463334,0.424 Z M98.2843334,7.134 C98.6803354,7.134 99.0763314,7.10466696 99.4723334,7.046 C99.8683354,6.98733304 100.223998,6.87733414 100.539333,6.716 C100.854668,6.55466586 101.114999,6.32366817 101.320333,6.023 C101.525668,5.72233183 101.628333,5.33733568 101.628333,4.868 C101.628333,4.44266454 101.533001,4.09433469 101.342333,3.823 C101.151666,3.55166531 100.909668,3.33533414 100.616333,3.174 C100.322999,3.01266586 99.9893353,2.90266696 99.6153334,2.844 C99.2413315,2.78533304 98.8783352,2.756 98.5263334,2.756 L96.0183334,2.756 L96.0183334,7.134 L98.2843334,7.134 Z" id="WINNER"></path>
                    <path d="M11.2775,26.38 L15.4175,26.38 C15.817502,26.38 16.212498,26.4274995 16.6025,26.5225 C16.9925019,26.6175005 17.3399985,26.7724989 17.645,26.9875 C17.9500015,27.2025011 18.197499,27.4799983 18.3875,27.82 C18.5775009,28.1600017 18.6725,28.5699976 18.6725,29.05 C18.6725,29.650003 18.5025017,30.144998 18.1625,30.535 C17.8224983,30.9250019 17.3775027,31.2049991 16.8275,31.375 L16.8275,31.405 C17.4975033,31.4950004 18.0474978,31.7549978 18.4775,32.185 C18.9075021,32.6150021 19.1225,33.1899964 19.1225,33.91 C19.1225,34.4900029 19.0075011,34.977498 18.7775,35.3725 C18.5474988,35.767502 18.2450019,36.0849988 17.87,36.325 C17.4949981,36.5650012 17.0650024,36.7374995 16.58,36.8425 C16.0949976,36.9475005 15.6025025,37 15.1025,37 L11.2775,37 L11.2775,26.38 Z M13.1675,30.7 L14.8475,30.7 C15.4775031,30.7 15.9574983,30.5750012 16.2875,30.325 C16.6175016,30.0749987 16.7825,29.7200023 16.7825,29.26 C16.7825,28.7799976 16.6125017,28.440001 16.2725,28.24 C15.9324983,28.039999 15.4025036,27.94 14.6825,27.94 L13.1675,27.94 L13.1675,30.7 Z M13.1675,35.41 L14.8625,35.41 C15.1025012,35.41 15.3624986,35.3925002 15.6425,35.3575 C15.9225014,35.3224998 16.1799988,35.2500005 16.415,35.14 C16.6500012,35.0299994 16.8449992,34.870001 17,34.66 C17.1550008,34.4499989 17.2325,34.1700017 17.2325,33.82 C17.2325,33.2599972 17.0425019,32.8700011 16.6625,32.65 C16.2824981,32.4299989 15.7075038,32.32 14.9375,32.32 L13.1675,32.32 L13.1675,35.41 Z M26.9625,32.68 C26.9625,32.4499988 26.9300003,32.230001 26.865,32.02 C26.7999997,31.8099989 26.6975007,31.6250008 26.5575,31.465 C26.4174993,31.3049992 26.2400011,31.1775005 26.025,31.0825 C25.8099989,30.9874995 25.5575014,30.94 25.2675,30.94 C24.7274973,30.94 24.2700019,31.1024984 23.895,31.4275 C23.5199981,31.7525016 23.3125002,32.1699974 23.2725,32.68 L26.9625,32.68 Z M28.7625,33.49 L28.7625,33.73 C28.7625,33.8100004 28.7575,33.8899996 28.7475,33.97 L23.2725,33.97 C23.2925001,34.2300013 23.3599994,34.4674989 23.475,34.6825 C23.5900006,34.8975011 23.742499,35.0824992 23.9325,35.2375 C24.1225009,35.3925008 24.3374988,35.5149995 24.5775,35.605 C24.8175012,35.6950004 25.0674987,35.74 25.3275,35.74 C25.7775022,35.74 26.1574984,35.6575008 26.4675,35.4925 C26.7775015,35.3274992 27.032499,35.1000014 27.2325,34.81 L28.4325,35.77 C27.7224964,36.7300048 26.6925067,37.21 25.3425,37.21 C24.7824972,37.21 24.2675023,37.1225009 23.7975,36.9475 C23.3274976,36.7724991 22.9200017,36.5250016 22.575,36.205 C22.2299983,35.8849984 21.960001,35.4925023 21.765,35.0275 C21.569999,34.5624977 21.4725,34.0350029 21.4725,33.445 C21.4725,32.8649971 21.569999,32.3375024 21.765,31.8625 C21.960001,31.3874976 22.2274983,30.9825017 22.5675,30.6475 C22.9075017,30.3124983 23.3099977,30.0525009 23.775,29.8675 C24.2400023,29.6824991 24.7424973,29.59 25.2825,29.59 C25.7825025,29.59 26.2449979,29.6724992 26.67,29.8375 C27.0950021,30.0025008 27.4624984,30.2474984 27.7725,30.5725 C28.0825015,30.8975016 28.3249991,31.3024976 28.5,31.7875 C28.6750009,32.2725024 28.7625,32.8399967 28.7625,33.49 L28.7625,33.49 Z M35.4475,31.72 C35.2874992,31.5099989 35.0675014,31.3275008 34.7875,31.1725 C34.5074986,31.0174992 34.2025016,30.94 33.8725,30.94 C33.5824985,30.94 33.3175012,30.9999994 33.0775,31.12 C32.8374988,31.2400006 32.7175,31.4399986 32.7175,31.72 C32.7175,32.0000014 32.8499987,32.1974994 33.115,32.3125 C33.3800013,32.4275006 33.7674974,32.5449994 34.2775,32.665 C34.5475013,32.7250003 34.8199986,32.8049995 35.095,32.905 C35.3700014,33.0050005 35.6199989,33.1374992 35.845,33.3025 C36.0700011,33.4675008 36.2524993,33.6724988 36.3925,33.9175 C36.5325007,34.1625012 36.6025,34.4599982 36.6025,34.81 C36.6025,35.2500022 36.5200008,35.6224985 36.355,35.9275 C36.1899992,36.2325015 35.9700014,36.479999 35.695,36.67 C35.4199986,36.8600009 35.1000018,36.9974996 34.735,37.0825 C34.3699982,37.1675004 33.9925019,37.21 33.6025,37.21 C33.0424972,37.21 32.4975026,37.107501 31.9675,36.9025 C31.4374973,36.697499 30.9975017,36.4050019 30.6475,36.025 L31.8325,34.915 C32.032501,35.1750013 32.2924984,35.3899991 32.6125,35.56 C32.9325016,35.7300008 33.287498,35.815 33.6775,35.815 C33.8075006,35.815 33.9399993,35.8000001 34.075,35.77 C34.2100007,35.7399998 34.3349994,35.6925003 34.45,35.6275 C34.5650006,35.5624997 34.6574996,35.4750005 34.7275,35.365 C34.7975003,35.2549994 34.8325,35.1200008 34.8325,34.96 C34.8325,34.6599985 34.6950014,34.4450006 34.42,34.315 C34.1449986,34.1849993 33.7325027,34.0550006 33.1825,33.925 C32.9124986,33.8649997 32.6500013,33.7875005 32.395,33.6925 C32.1399987,33.5974995 31.912501,33.4725008 31.7125,33.3175 C31.512499,33.1624992 31.3525006,32.9700011 31.2325,32.74 C31.1124994,32.5099988 31.0525,32.2250017 31.0525,31.885 C31.0525,31.484998 31.1349992,31.1400014 31.3,30.85 C31.4650008,30.5599985 31.6824986,30.3225009 31.9525,30.1375 C32.2225013,29.9524991 32.5274983,29.8150004 32.8675,29.725 C33.2075017,29.6349995 33.5574982,29.59 33.9175,29.59 C34.4375026,29.59 34.9449975,29.6799991 35.44,29.86 C35.9350025,30.0400009 36.3274985,30.3149981 36.6175,30.685 L35.4475,31.72 Z M38.1275,31.24 L38.1275,29.8 L39.3875,29.8 L39.3875,27.715 L41.1575,27.715 L41.1575,29.8 L42.9575,29.8 L42.9575,31.24 L41.1575,31.24 L41.1575,34.585 C41.1575,34.9050016 41.2149994,35.1699989 41.33,35.38 C41.4450006,35.590001 41.702498,35.695 42.1025,35.695 C42.2225006,35.695 42.3524993,35.6825001 42.4925,35.6575 C42.6325007,35.6324999 42.7574994,35.5950002 42.8675,35.545 L42.9275,36.955 C42.7674992,37.0150003 42.5775011,37.0624998 42.3575,37.0975 C42.1374989,37.1325002 41.927501,37.15 41.7275,37.15 C41.2474976,37.15 40.8575015,37.0825007 40.5575,36.9475 C40.2574985,36.8124993 40.0200009,36.6275012 39.845,36.3925 C39.6699991,36.1574988 39.5500003,35.8875015 39.485,35.5825 C39.4199997,35.2774985 39.3875,34.9500017 39.3875,34.6 L39.3875,31.24 L38.1275,31.24 Z M50.1025,26.38 L53.8675,26.38 C54.5575034,26.38 55.2524965,26.4699991 55.9525,26.65 C56.6525035,26.8300009 57.2824972,27.1274979 57.8425,27.5425 C58.4025028,27.9575021 58.8574982,28.5024966 59.2075,29.1775 C59.5575017,29.8525034 59.7325,30.689995 59.7325,31.69 C59.7325,32.6200046 59.5575017,33.4199966 59.2075,34.09 C58.8574982,34.7600033 58.4025028,35.3099978 57.8425,35.74 C57.2824972,36.1700021 56.6525035,36.487499 55.9525,36.6925 C55.2524965,36.897501 54.5575034,37 53.8675,37 L50.1025,37 L50.1025,26.38 Z M53.5675,35.35 C54.0575024,35.35 54.5474975,35.2925006 55.0375,35.1775 C55.5275024,35.0624994 55.969998,34.8675014 56.365,34.5925 C56.760002,34.3174986 57.0824987,33.9450023 57.3325,33.475 C57.5825012,33.0049976 57.7075,32.4100036 57.7075,31.69 C57.7075,30.9299962 57.5825012,30.3100024 57.3325,29.83 C57.0824987,29.3499976 56.760002,28.9750013 56.365,28.705 C55.969998,28.4349986 55.5275024,28.2500005 55.0375,28.15 C54.5474975,28.0499995 54.0575024,28 53.5675,28 L51.9925,28 L51.9925,35.35 L53.5675,35.35 Z M67.5425,32.68 C67.5425,32.4499988 67.5100003,32.230001 67.445,32.02 C67.3799997,31.8099989 67.2775007,31.6250008 67.1375,31.465 C66.9974993,31.3049992 66.8200011,31.1775005 66.605,31.0825 C66.3899989,30.9874995 66.1375014,30.94 65.8475,30.94 C65.3074973,30.94 64.8500019,31.1024984 64.475,31.4275 C64.0999981,31.7525016 63.8925002,32.1699974 63.8525,32.68 L67.5425,32.68 Z M69.3425,33.49 L69.3425,33.73 C69.3425,33.8100004 69.3375,33.8899996 69.3275,33.97 L63.8525,33.97 C63.8725001,34.2300013 63.9399994,34.4674989 64.055,34.6825 C64.1700006,34.8975011 64.322499,35.0824992 64.5125,35.2375 C64.7025009,35.3925008 64.9174988,35.5149995 65.1575,35.605 C65.3975012,35.6950004 65.6474987,35.74 65.9075,35.74 C66.3575022,35.74 66.7374984,35.6575008 67.0475,35.4925 C67.3575015,35.3274992 67.612499,35.1000014 67.8125,34.81 L69.0125,35.77 C68.3024964,36.7300048 67.2725067,37.21 65.9225,37.21 C65.3624972,37.21 64.8475023,37.1225009 64.3775,36.9475 C63.9074976,36.7724991 63.5000017,36.5250016 63.155,36.205 C62.8099983,35.8849984 62.540001,35.4925023 62.345,35.0275 C62.149999,34.5624977 62.0525,34.0350029 62.0525,33.445 C62.0525,32.8649971 62.149999,32.3375024 62.345,31.8625 C62.540001,31.3874976 62.8074983,30.9825017 63.1475,30.6475 C63.4875017,30.3124983 63.8899977,30.0525009 64.355,29.8675 C64.8200023,29.6824991 65.3224973,29.59 65.8625,29.59 C66.3625025,29.59 66.8249979,29.6724992 67.25,29.8375 C67.6750021,30.0025008 68.0424984,30.2474984 68.3525,30.5725 C68.6625015,30.8975016 68.9049991,31.3024976 69.08,31.7875 C69.2550009,32.2725024 69.3425,32.8399967 69.3425,33.49 L69.3425,33.49 Z M76.0275,31.72 C75.8674992,31.5099989 75.6475014,31.3275008 75.3675,31.1725 C75.0874986,31.0174992 74.7825016,30.94 74.4525,30.94 C74.1624985,30.94 73.8975012,30.9999994 73.6575,31.12 C73.4174988,31.2400006 73.2975,31.4399986 73.2975,31.72 C73.2975,32.0000014 73.4299987,32.1974994 73.695,32.3125 C73.9600013,32.4275006 74.3474974,32.5449994 74.8575,32.665 C75.1275013,32.7250003 75.3999986,32.8049995 75.675,32.905 C75.9500014,33.0050005 76.1999989,33.1374992 76.425,33.3025 C76.6500011,33.4675008 76.8324993,33.6724988 76.9725,33.9175 C77.1125007,34.1625012 77.1825,34.4599982 77.1825,34.81 C77.1825,35.2500022 77.1000008,35.6224985 76.935,35.9275 C76.7699992,36.2325015 76.5500014,36.479999 76.275,36.67 C75.9999986,36.8600009 75.6800018,36.9974996 75.315,37.0825 C74.9499982,37.1675004 74.5725019,37.21 74.1825,37.21 C73.6224972,37.21 73.0775026,37.107501 72.5475,36.9025 C72.0174973,36.697499 71.5775017,36.4050019 71.2275,36.025 L72.4125,34.915 C72.612501,35.1750013 72.8724984,35.3899991 73.1925,35.56 C73.5125016,35.7300008 73.867498,35.815 74.2575,35.815 C74.3875006,35.815 74.5199993,35.8000001 74.655,35.77 C74.7900007,35.7399998 74.9149994,35.6925003 75.03,35.6275 C75.1450006,35.5624997 75.2374996,35.4750005 75.3075,35.365 C75.3775003,35.2549994 75.4125,35.1200008 75.4125,34.96 C75.4125,34.6599985 75.2750014,34.4450006 75,34.315 C74.7249986,34.1849993 74.3125027,34.0550006 73.7625,33.925 C73.4924986,33.8649997 73.2300013,33.7875005 72.975,33.6925 C72.7199987,33.5974995 72.492501,33.4725008 72.2925,33.3175 C72.092499,33.1624992 71.9325006,32.9700011 71.8125,32.74 C71.6924994,32.5099988 71.6325,32.2250017 71.6325,31.885 C71.6325,31.484998 71.7149992,31.1400014 71.88,30.85 C72.0450008,30.5599985 72.2624986,30.3225009 72.5325,30.1375 C72.8025013,29.9524991 73.1074983,29.8150004 73.4475,29.725 C73.7875017,29.6349995 74.1374982,29.59 74.4975,29.59 C75.0175026,29.59 75.5249975,29.6799991 76.02,29.86 C76.5150025,30.0400009 76.9074985,30.3149981 77.1975,30.685 L76.0275,31.72 Z M79.7725,29.8 L81.5725,29.8 L81.5725,37 L79.7725,37 L79.7725,29.8 Z M79.5175,27.355 C79.5175,27.0649985 79.6249989,26.8125011 79.84,26.5975 C80.0550011,26.3824989 80.3274983,26.275 80.6575,26.275 C80.9875016,26.275 81.2649989,26.377499 81.49,26.5825 C81.7150011,26.787501 81.8275,27.0449984 81.8275,27.355 C81.8275,27.6650015 81.7150011,27.922499 81.49,28.1275 C81.2649989,28.332501 80.9875016,28.435 80.6575,28.435 C80.3274983,28.435 80.0550011,28.3275011 79.84,28.1125 C79.6249989,27.8974989 79.5175,27.6450014 79.5175,27.355 L79.5175,27.355 Z M92.0825,29.8 L92.0825,36.355 C92.0825,37.0050032 92.0025008,37.5924974 91.8425,38.1175 C91.6824992,38.6425026 91.4350017,39.0874982 91.1,39.4525 C90.7649983,39.8175018 90.3425025,40.099999 89.8325,40.3 C89.3224974,40.500001 88.7175035,40.6 88.0175,40.6 C87.7274985,40.6 87.4200016,40.5750002 87.095,40.525 C86.7699984,40.4749997 86.4500016,40.4000005 86.135,40.3 C85.8199984,40.1999995 85.5175014,40.0750007 85.2275,39.925 C84.9374985,39.7749992 84.6775011,39.6050009 84.4475,39.415 L85.4825,38.02 C85.8325017,38.3500016 86.2274978,38.6024991 86.6675,38.7775 C87.1075022,38.9525009 87.5524977,39.04 88.0025,39.04 C88.4325021,39.04 88.7949985,38.9775006 89.09,38.8525 C89.3850015,38.7274994 89.6199991,38.5550011 89.795,38.335 C89.9700009,38.1149989 90.0949996,37.8550015 90.17,37.555 C90.2450004,37.2549985 90.2825,36.9250018 90.2825,36.565 L90.2825,36.04 L90.2525,36.04 C89.9924987,36.3900017 89.660002,36.6574991 89.255,36.8425 C88.849998,37.0275009 88.3975025,37.12 87.8975,37.12 C87.3574973,37.12 86.8675022,37.020001 86.4275,36.82 C85.9874978,36.619999 85.6150015,36.3500017 85.31,36.01 C85.0049985,35.6699983 84.7675008,35.2725023 84.5975,34.8175 C84.4274991,34.3624977 84.3425,33.8800025 84.3425,33.37 C84.3425,32.8499974 84.4249992,32.3600023 84.59,31.9 C84.7550008,31.4399977 84.9899985,31.0400017 85.295,30.7 C85.6000015,30.3599983 85.9699978,30.090001 86.405,29.89 C86.8400022,29.689999 87.3274973,29.59 87.8675,29.59 C88.3775025,29.59 88.8524978,29.6949989 89.2925,29.905 C89.7325022,30.115001 90.0824987,30.4399978 90.3425,30.88 L90.3725,30.88 L90.3725,29.8 L92.0825,29.8 Z M88.2425,31.06 C87.9124983,31.06 87.6200013,31.1199994 87.365,31.24 C87.1099987,31.3600006 86.8950009,31.522499 86.72,31.7275 C86.5449991,31.932501 86.4100005,32.1749986 86.315,32.455 C86.2199995,32.7350014 86.1725,33.0349984 86.1725,33.355 C86.1725,33.6450014 86.2199995,33.9249986 86.315,34.195 C86.4100005,34.4650013 86.5449991,34.7074989 86.72,34.9225 C86.8950009,35.1375011 87.1099987,35.3099993 87.365,35.44 C87.6200013,35.5700006 87.9074984,35.635 88.2275,35.635 C88.5575016,35.635 88.8549987,35.5725006 89.12,35.4475 C89.3850013,35.3224994 89.6099991,35.155001 89.795,34.945 C89.9800009,34.7349989 90.1224995,34.4925014 90.2225,34.2175 C90.3225005,33.9424986 90.3725,33.6550015 90.3725,33.355 C90.3725,33.0449984 90.3225005,32.7500014 90.2225,32.47 C90.1224995,32.1899986 89.9800009,31.945001 89.795,31.735 C89.6099991,31.5249989 89.3875013,31.3600006 89.1275,31.24 C88.8674987,31.1199994 88.5725016,31.06 88.2425,31.06 L88.2425,31.06 Z M95.2425,29.8 L96.9525,29.8 L96.9525,30.955 L96.9825,30.955 C97.1425008,30.5949982 97.419998,30.2775014 97.815,30.0025 C98.210002,29.7274986 98.6774973,29.59 99.2175,29.59 C99.6875023,29.59 100.089998,29.6724992 100.425,29.8375 C100.760002,30.0025008 101.034999,30.2199986 101.25,30.49 C101.465001,30.7600013 101.622499,31.0699982 101.7225,31.42 C101.8225,31.7700017 101.8725,32.1299981 101.8725,32.5 L101.8725,37 L100.0725,37 L100.0725,33.01 C100.0725,32.7999989 100.0575,32.5800011 100.0275,32.35 C99.9974998,32.1199988 99.9325005,31.9125009 99.8325,31.7275 C99.7324995,31.5424991 99.5950009,31.3900006 99.42,31.27 C99.2449991,31.1499994 99.0125014,31.09 98.7225,31.09 C98.4324985,31.09 98.182501,31.1474994 97.9725,31.2625 C97.7624989,31.3775006 97.5900007,31.5249991 97.455,31.705 C97.3199993,31.8850009 97.2175003,32.0924988 97.1475,32.3275 C97.0774996,32.5625012 97.0425,32.7999988 97.0425,33.04 L97.0425,37 L95.2425,37 L95.2425,29.8 Z" id="Best-Design" stroke="#FFFFFF" stroke-width="0.25"></path>
                    <path d="M0.345,57.38 L3.99,57.38 C4.6700034,57.38 5.3499966,57.479999 6.03,57.68 C6.7100034,57.880001 7.32499725,58.1949978 7.875,58.625 C8.42500275,59.0550021 8.8699983,59.6049966 9.21,60.275 C9.5500017,60.9450033 9.72,61.7499953 9.72,62.69 C9.72,63.6000045 9.5500017,64.3874967 9.21,65.0525 C8.8699983,65.7175033 8.42500275,66.2674978 7.875,66.7025 C7.32499725,67.1375022 6.7100034,67.4624989 6.03,67.6775 C5.3499966,67.8925011 4.6700034,68 3.99,68 L0.345,68 L0.345,57.38 Z M1.83,66.695 L3.69,66.695 C4.3300032,66.695 4.92249728,66.6050009 5.4675,66.425 C6.01250273,66.2449991 6.48249803,65.9850017 6.8775,65.645 C7.27250198,65.3049983 7.5799989,64.8850025 7.8,64.385 C8.0200011,63.8849975 8.13,63.3200031 8.13,62.69 C8.13,62.0299967 8.0200011,61.4500025 7.8,60.95 C7.5799989,60.4499975 7.27250198,60.0325017 6.8775,59.6975 C6.48249803,59.3624983 6.01250273,59.1075009 5.4675,58.9325 C4.92249728,58.7574991 4.3300032,58.67 3.69,58.67 L1.83,58.67 L1.83,66.695 Z M17.89,63.815 C17.88,63.5349986 17.8325004,63.2725012 17.7475,63.0275 C17.6624996,62.7824988 17.5375008,62.5700009 17.3725,62.39 C17.2074992,62.2099991 17.0025012,62.0675005 16.7575,61.9625 C16.5124988,61.8574995 16.2250017,61.805 15.895,61.805 C15.5949985,61.805 15.3125013,61.8574995 15.0475,61.9625 C14.7824987,62.0675005 14.552501,62.2099991 14.3575,62.39 C14.162499,62.5700009 14.0025006,62.7824988 13.8775,63.0275 C13.7524994,63.2725012 13.6800001,63.5349986 13.66,63.815 L17.89,63.815 Z M19.315,64.385 L19.315,64.625 C19.315,64.7050004 19.3100001,64.7849996 19.3,64.865 L13.66,64.865 C13.6700001,65.1650015 13.7374994,65.4474987 13.8625,65.7125 C13.9875006,65.9775013 14.154999,66.207499 14.365,66.4025 C14.5750011,66.597501 14.8174986,66.7499994 15.0925,66.86 C15.3675014,66.9700005 15.6599985,67.025 15.97,67.025 C16.4500024,67.025 16.8649983,66.920001 17.215,66.71 C17.5650018,66.4999989 17.839999,66.2450015 18.04,65.945 L19.03,66.74 C18.6499981,67.2400025 18.2025026,67.6074988 17.6875,67.8425 C17.1724974,68.0775012 16.6000032,68.195 15.97,68.195 C15.4299973,68.195 14.9300023,68.1050009 14.47,67.925 C14.0099977,67.7449991 13.6150017,67.4925016 13.285,67.1675 C12.9549984,66.8424984 12.695001,66.4500023 12.505,65.99 C12.3149991,65.5299977 12.22,65.0200028 12.22,64.46 C12.22,63.9099972 12.3124991,63.4025023 12.4975,62.9375 C12.6825009,62.4724977 12.9399984,62.0750016 13.27,61.745 C13.6000017,61.4149983 13.9899978,61.1575009 14.44,60.9725 C14.8900023,60.7874991 15.3749974,60.695 15.895,60.695 C16.4150026,60.695 16.8874979,60.7799991 17.3125,60.95 C17.7375021,61.1200008 18.0974985,61.3649984 18.3925,61.685 C18.6875015,62.0050016 18.9149992,62.3924977 19.075,62.8475 C19.2350008,63.3025023 19.315,63.8149971 19.315,64.385 L19.315,64.385 Z M26.12,62.69 C25.9599992,62.4299987 25.7350015,62.2175008 25.445,62.0525 C25.1549986,61.8874992 24.8300018,61.805 24.47,61.805 C24.3099992,61.805 24.1500008,61.8224998 23.99,61.8575 C23.8299992,61.8925002 23.6875006,61.9474996 23.5625,62.0225 C23.4374994,62.0975004 23.3375004,62.1924994 23.2625,62.3075 C23.1874996,62.4225006 23.15,62.5649991 23.15,62.735 C23.15,63.0350015 23.2849987,63.2574993 23.555,63.4025 C23.8250014,63.5475007 24.2299973,63.6799994 24.77,63.8 C25.1100017,63.8800004 25.4249986,63.9749994 25.715,64.085 C26.0050015,64.1950005 26.2574989,64.3324992 26.4725,64.4975 C26.6875011,64.6625008 26.8549994,64.8599988 26.975,65.09 C27.0950006,65.3200011 27.155,65.5899984 27.155,65.9 C27.155,66.3200021 27.0750008,66.6749985 26.915,66.965 C26.7549992,67.2550014 26.5425013,67.4924991 26.2775,67.6775 C26.0124987,67.8625009 25.7100017,67.9949996 25.37,68.075 C25.0299983,68.1550004 24.6800018,68.195 24.32,68.195 C23.7799973,68.195 23.2525026,68.090001 22.7375,67.88 C22.2224974,67.6699989 21.7950017,67.3500021 21.455,66.92 L22.46,66.065 C22.650001,66.3450014 22.9124983,66.579999 23.2475,66.77 C23.5825017,66.9600009 23.949998,67.055 24.35,67.055 C24.5300009,67.055 24.7024992,67.0375002 24.8675,67.0025 C25.0325008,66.9674998 25.1824993,66.9100004 25.3175,66.83 C25.4525007,66.7499996 25.5599996,66.6450006 25.64,66.515 C25.7200004,66.3849993 25.76,66.220001 25.76,66.02 C25.76,65.6899983 25.6025016,65.4450008 25.2875,65.285 C24.9724984,65.1249992 24.5100031,64.9750007 23.9,64.835 C23.6599988,64.7749997 23.4175012,64.7025004 23.1725,64.6175 C22.9274988,64.5324996 22.705001,64.4150007 22.505,64.265 C22.304999,64.1149992 22.1425006,63.9275011 22.0175,63.7025 C21.8924994,63.4774989 21.83,63.2000016 21.83,62.87 C21.83,62.4899981 21.9074992,62.1625014 22.0625,61.8875 C22.2175008,61.6124986 22.4199988,61.3875009 22.67,61.2125 C22.9200013,61.0374991 23.2049984,60.9075004 23.525,60.8225 C23.8450016,60.7374996 24.1749983,60.695 24.515,60.695 C25.0250026,60.695 25.5174976,60.794999 25.9925,60.995 C26.4675024,61.195001 26.8349987,61.4849981 27.095,61.865 L26.12,62.69 Z M31.365,68 L29.955,68 L29.955,60.89 L31.365,60.89 L31.365,68 Z M31.605,58.325 C31.605,58.5850013 31.5125009,58.7999991 31.3275,58.97 C31.1424991,59.1400008 30.9200013,59.225 30.66,59.225 C30.3999987,59.225 30.1800009,59.1375009 30,58.9625 C29.8199991,58.7874991 29.73,58.5750012 29.73,58.325 C29.73,58.0649987 29.8199991,57.8475009 30,57.6725 C30.1800009,57.4974991 30.3999987,57.41 30.66,57.41 C30.9200013,57.41 31.1424991,57.4974991 31.3275,57.6725 C31.5125009,57.8475009 31.605,58.0649987 31.605,58.325 L31.605,58.325 Z M35.38,69.215 C35.6900016,69.5650017 36.0774977,69.8449989 36.5425,70.055 C37.0075023,70.265001 37.4849976,70.37 37.975,70.37 C38.4450024,70.37 38.8399984,70.3025007 39.16,70.1675 C39.4800016,70.0324993 39.737499,69.8475012 39.9325,69.6125 C40.127501,69.3774988 40.2674996,69.1000016 40.3525,68.78 C40.4375004,68.4599984 40.48,68.1150018 40.48,67.745 L40.48,66.83 L40.45,66.83 C40.1899987,67.230002 39.8350023,67.5349989 39.385,67.745 C38.9349978,67.955001 38.4550026,68.06 37.945,68.06 C37.4049973,68.06 36.9125022,67.9650009 36.4675,67.775 C36.0224978,67.584999 35.6450016,67.3250016 35.335,66.995 C35.0249985,66.6649983 34.7850009,66.2775022 34.615,65.8325 C34.4449992,65.3874978 34.36,64.9100025 34.36,64.4 C34.36,63.8899974 34.4449992,63.4100022 34.615,62.96 C34.7850009,62.5099977 35.0249985,62.1175017 35.335,61.7825 C35.6450016,61.4474983 36.0199978,61.182501 36.46,60.9875 C36.9000022,60.792499 37.3899973,60.695 37.93,60.695 C38.4400026,60.695 38.9274977,60.8049989 39.3925,61.025 C39.8575023,61.2450011 40.2249987,61.5799977 40.495,62.03 L40.525,62.03 L40.525,60.89 L41.89,60.89 L41.89,67.64 C41.89,68.1600026 41.8250007,68.6574976 41.695,69.1325 C41.5649994,69.6075024 41.3450016,70.0274982 41.035,70.3925 C40.7249985,70.7575018 40.3200025,71.0499989 39.82,71.27 C39.3199975,71.4900011 38.7000037,71.6 37.96,71.6 C37.3399969,71.6 36.7175031,71.4875011 36.0925,71.2625 C35.4674969,71.0374989 34.9300023,70.720002 34.48,70.31 L35.38,69.215 Z M35.815,64.37 C35.815,64.7000016 35.8674995,65.0149985 35.9725,65.315 C36.0775005,65.6150015 36.232499,65.8799988 36.4375,66.11 C36.642501,66.3400011 36.8899986,66.5249993 37.18,66.665 C37.4700015,66.8050007 37.7999982,66.875 38.17,66.875 C38.5300018,66.875 38.8599985,66.8100006 39.16,66.68 C39.4600015,66.5499993 39.714999,66.3725011 39.925,66.1475 C40.1350011,65.9224989 40.2974994,65.6575015 40.4125,65.3525 C40.5275006,65.0474985 40.585,64.7200017 40.585,64.37 C40.585,64.0299983 40.5275006,63.7100015 40.4125,63.41 C40.2974994,63.1099985 40.1325011,62.8450011 39.9175,62.615 C39.7024989,62.3849988 39.4475015,62.2025007 39.1525,62.0675 C38.8574985,61.9324993 38.5300018,61.865 38.17,61.865 C37.7999982,61.865 37.4700015,61.9324993 37.18,62.0675 C36.8899986,62.2025007 36.642501,62.3824989 36.4375,62.6075 C36.232499,62.8325011 36.0775005,63.0974985 35.9725,63.4025 C35.8674995,63.7075015 35.815,64.0299983 35.815,64.37 L35.815,64.37 Z M46.58,60.89 C46.6000001,61.0700009 46.615,61.2724989 46.625,61.4975 C46.6350001,61.7225011 46.64,61.9099992 46.64,62.06 L46.685,62.06 C46.7750005,61.869999 46.8974992,61.6925008 47.0525,61.5275 C47.2075008,61.3624992 47.384999,61.2175006 47.585,61.0925 C47.785001,60.9674994 48.0049988,60.8700003 48.245,60.8 C48.4850012,60.7299996 48.7349987,60.695 48.995,60.695 C49.4550023,60.695 49.8499984,60.7724992 50.18,60.9275 C50.5100017,61.0825008 50.7849989,61.2899987 51.005,61.55 C51.2250011,61.8100013 51.3874995,62.1149982 51.4925,62.465 C51.5975005,62.8150017 51.65,63.189998 51.65,63.59 L51.65,68 L50.24,68 L50.24,64.055 C50.24,63.7649985 50.2175002,63.4900013 50.1725,63.23 C50.1274998,62.9699987 50.0450006,62.740001 49.925,62.54 C49.8049994,62.339999 49.6400011,62.1800006 49.43,62.06 C49.219999,61.9399994 48.9500017,61.88 48.62,61.88 C48.0599972,61.88 47.6025018,62.0924979 47.2475,62.5175 C46.8924982,62.9425021 46.715,63.5099964 46.715,64.22 L46.715,68 L45.305,68 L45.305,62.42 C45.305,62.229999 45.3000001,61.9850015 45.29,61.685 C45.28,61.3849985 45.2650001,61.1200011 45.245,60.89 L46.58,60.89 Z M60.025,68 L58.375,68 L62.98,57.38 L64.33,57.38 L68.89,68 L67.21,68 L66.13,65.39 L61.09,65.39 L60.025,68 Z M61.615,64.085 L65.59,64.085 L63.61,59.105 L61.615,64.085 Z M71.615,60.89 L73.22,66.32 L73.25,66.32 L74.945,60.89 L76.43,60.89 L78.155,66.32 L78.185,66.32 L79.79,60.89 L81.275,60.89 L78.92,68 L77.45,68 L75.695,62.66 L75.665,62.66 L73.925,68 L72.455,68 L70.085,60.89 L71.615,60.89 Z M88.11,63.395 C88.11,62.8649973 87.9500016,62.4725013 87.63,62.2175 C87.3099984,61.9624987 86.8850027,61.835 86.355,61.835 C85.954998,61.835 85.5775018,61.9124992 85.2225,62.0675 C84.8674982,62.2225008 84.5700012,62.4199988 84.33,62.66 L83.58,61.76 C83.9300018,61.4299983 84.3574975,61.1700009 84.8625,60.98 C85.3675025,60.789999 85.9099971,60.695 86.49,60.695 C87.0000026,60.695 87.4424981,60.7674993 87.8175,60.9125 C88.1925019,61.0575007 88.4999988,61.2549987 88.74,61.505 C88.9800012,61.7550012 89.1599994,62.0499983 89.28,62.39 C89.4000006,62.7300017 89.46,63.094998 89.46,63.485 L89.46,66.59 C89.46,66.8300012 89.4674999,67.0824987 89.4825,67.3475 C89.4975001,67.6125013 89.5249998,67.8299991 89.565,68 L88.29,68 C88.2099996,67.6599983 88.17,67.3200017 88.17,66.98 L88.125,66.98 C87.8649987,67.3600019 87.537502,67.6549989 87.1425,67.865 C86.747498,68.075001 86.2800027,68.18 85.74,68.18 C85.4599986,68.18 85.1675015,68.1425004 84.8625,68.0675 C84.5574985,67.9924996 84.2800013,67.8700008 84.03,67.7 C83.7799988,67.5299991 83.5725008,67.3050014 83.4075,67.025 C83.2424992,66.7449986 83.16,66.400002 83.16,65.99 C83.16,65.4499973 83.3049986,65.0225016 83.595,64.7075 C83.8850015,64.3924984 84.2649977,64.1525008 84.735,63.9875 C85.2050024,63.8224992 85.7349971,63.7150002 86.325,63.665 C86.915003,63.6149997 87.509997,63.59 88.11,63.59 L88.11,63.395 Z M87.765,64.61 C87.4149983,64.61 87.0525019,64.6249998 86.6775,64.655 C86.3024981,64.6850001 85.9625015,64.7449995 85.6575,64.835 C85.3524985,64.9250004 85.100001,65.0599991 84.9,65.24 C84.699999,65.4200009 84.6,65.6599985 84.6,65.96 C84.6,66.170001 84.6424996,66.3449993 84.7275,66.485 C84.8125004,66.6250007 84.9249993,66.7399995 85.065,66.83 C85.2050007,66.9200004 85.3599992,66.9824998 85.53,67.0175 C85.7000009,67.0525002 85.8749991,67.07 86.055,67.07 C86.7150033,67.07 87.2224982,66.872502 87.5775,66.4775 C87.9325018,66.082498 88.11,65.585003 88.11,64.985 L88.11,64.61 L87.765,64.61 Z M92.815,62.42 C92.815,62.229999 92.8100001,61.9850015 92.8,61.685 C92.79,61.3849985 92.7750001,61.1200011 92.755,60.89 L94.09,60.89 C94.1100001,61.0700009 94.125,61.2774988 94.135,61.5125 C94.1450001,61.7475012 94.15,61.9399992 94.15,62.09 L94.195,62.09 C94.395001,61.6699979 94.6874981,61.3325013 95.0725,61.0775 C95.4575019,60.8224987 95.8899976,60.695 96.37,60.695 C96.5900011,60.695 96.7749993,60.7149998 96.925,60.755 L96.865,62.06 C96.664999,62.0099997 96.4500012,61.985 96.22,61.985 C95.8799983,61.985 95.5850013,62.0474994 95.335,62.1725 C95.0849988,62.2975006 94.8775008,62.4649989 94.7125,62.675 C94.5474992,62.885001 94.4250004,63.1274986 94.345,63.4025 C94.2649996,63.6775014 94.225,63.9649985 94.225,64.265 L94.225,68 L92.815,68 L92.815,62.42 Z M104.645,66.875 C104.374999,67.3050021 104.007502,67.6324989 103.5425,67.8575 C103.077498,68.0825011 102.590003,68.195 102.08,68.195 C101.529997,68.195 101.035002,68.097501 100.595,67.9025 C100.154998,67.707499 99.7800016,67.4400017 99.47,67.1 C99.1599985,66.7599983 98.9200009,66.3600023 98.75,65.9 C98.5799992,65.4399977 98.495,64.9500026 98.495,64.43 C98.495,63.9099974 98.5799992,63.4225023 98.75,62.9675 C98.9200009,62.5124977 99.1624984,62.1150017 99.4775,61.775 C99.7925016,61.4349983 100.169998,61.1700009 100.61,60.98 C101.050002,60.789999 101.534997,60.695 102.065,60.695 C102.645003,60.695 103.149998,60.8174988 103.58,61.0625 C104.010002,61.3075012 104.349999,61.6049982 104.6,61.955 L104.63,61.955 L104.63,56.66 L106.04,56.66 L106.04,68 L104.675,68 L104.675,66.875 L104.645,66.875 Z M99.965,64.43 C99.965,64.7600016 100.015,65.0799984 100.115,65.39 C100.215001,65.7000015 100.364999,65.9749988 100.565,66.215 C100.765001,66.4550012 101.009999,66.6474993 101.3,66.7925 C101.590001,66.9375007 101.929998,67.01 102.32,67.01 C102.680002,67.01 103.007499,66.9400007 103.3025,66.8 C103.597501,66.6599993 103.849999,66.4725012 104.06,66.2375 C104.270001,66.0024988 104.432499,65.7300015 104.5475,65.42 C104.662501,65.1099984 104.72,64.7850017 104.72,64.445 C104.72,64.1049983 104.662501,63.7800015 104.5475,63.47 C104.432499,63.1599984 104.270001,62.8850012 104.06,62.645 C103.849999,62.4049988 103.597501,62.2150007 103.3025,62.075 C103.007499,61.9349993 102.680002,61.865 102.32,61.865 C101.929998,61.865 101.590001,61.9349993 101.3,62.075 C101.009999,62.2150007 100.765001,62.4049988 100.565,62.645 C100.364999,62.8850012 100.215001,63.1599984 100.115,63.47 C100.015,63.7800015 99.965,64.0999983 99.965,64.43 L99.965,64.43 Z M113.34,62.69 C113.179999,62.4299987 112.955001,62.2175008 112.665,62.0525 C112.374999,61.8874992 112.050002,61.805 111.69,61.805 C111.529999,61.805 111.370001,61.8224998 111.21,61.8575 C111.049999,61.8925002 110.907501,61.9474996 110.7825,62.0225 C110.657499,62.0975004 110.5575,62.1924994 110.4825,62.3075 C110.4075,62.4225006 110.37,62.5649991 110.37,62.735 C110.37,63.0350015 110.504999,63.2574993 110.775,63.4025 C111.045001,63.5475007 111.449997,63.6799994 111.99,63.8 C112.330002,63.8800004 112.644999,63.9749994 112.935,64.085 C113.225001,64.1950005 113.477499,64.3324992 113.6925,64.4975 C113.907501,64.6625008 114.074999,64.8599988 114.195,65.09 C114.315001,65.3200011 114.375,65.5899984 114.375,65.9 C114.375,66.3200021 114.295001,66.6749985 114.135,66.965 C113.974999,67.2550014 113.762501,67.4924991 113.4975,67.6775 C113.232499,67.8625009 112.930002,67.9949996 112.59,68.075 C112.249998,68.1550004 111.900002,68.195 111.54,68.195 C110.999997,68.195 110.472503,68.090001 109.9575,67.88 C109.442497,67.6699989 109.015002,67.3500021 108.675,66.92 L109.68,66.065 C109.870001,66.3450014 110.132498,66.579999 110.4675,66.77 C110.802502,66.9600009 111.169998,67.055 111.57,67.055 C111.750001,67.055 111.922499,67.0375002 112.0875,67.0025 C112.252501,66.9674998 112.402499,66.9100004 112.5375,66.83 C112.672501,66.7499996 112.78,66.6450006 112.86,66.515 C112.94,66.3849993 112.98,66.220001 112.98,66.02 C112.98,65.6899983 112.822502,65.4450008 112.5075,65.285 C112.192498,65.1249992 111.730003,64.9750007 111.12,64.835 C110.879999,64.7749997 110.637501,64.7025004 110.3925,64.6175 C110.147499,64.5324996 109.925001,64.4150007 109.725,64.265 C109.524999,64.1149992 109.362501,63.9275011 109.2375,63.7025 C109.112499,63.4774989 109.05,63.2000016 109.05,62.87 C109.05,62.4899981 109.127499,62.1625014 109.2825,61.8875 C109.437501,61.6124986 109.639999,61.3875009 109.89,61.2125 C110.140001,61.0374991 110.424998,60.9075004 110.745,60.8225 C111.065002,60.7374996 111.394998,60.695 111.735,60.695 C112.245003,60.695 112.737498,60.794999 113.2125,60.995 C113.687502,61.195001 114.054999,61.4849981 114.315,61.865 L113.34,62.69 Z" id="Design-Awards"></path>
                    <path d="M44.98,99 L38.05,99 L38.05,97.605 L42.28,93.405 C42.6000016,93.0749984 42.8749988,92.7300018 43.105,92.37 C43.3350011,92.0099982 43.45,91.6050023 43.45,91.155 C43.45,90.8749986 43.4000005,90.6225011 43.3,90.3975 C43.1999995,90.1724989 43.0650008,89.9800008 42.895,89.82 C42.7249991,89.6599992 42.5250011,89.5375004 42.295,89.4525 C42.0649988,89.3674996 41.8200013,89.325 41.56,89.325 C41.0199973,89.325 40.5750017,89.4974983 40.225,89.8425 C39.8749982,90.1875017 39.6550004,90.6299973 39.565,91.17 L38.14,90.93 C38.2000003,90.529998 38.327499,90.1575017 38.5225,89.8125 C38.717501,89.4674983 38.9649985,89.1675013 39.265,88.9125 C39.5650015,88.6574987 39.912498,88.4600007 40.3075,88.32 C40.702502,88.1799993 41.1249977,88.11 41.575,88.11 C42.0150022,88.11 42.437498,88.1749994 42.8425,88.305 C43.247502,88.4350007 43.6049984,88.6249988 43.915,88.875 C44.2250015,89.1250013 44.4724991,89.4399981 44.6575,89.82 C44.8425009,90.2000019 44.935,90.6349976 44.935,91.125 C44.935,91.4650017 44.8900004,91.7799986 44.8,92.07 C44.7099995,92.3600015 44.5875008,92.6349987 44.4325,92.895 C44.2774992,93.1550013 44.095001,93.4024988 43.885,93.6375 C43.6749989,93.8725012 43.4550011,94.1049989 43.225,94.335 L39.775,97.695 L44.98,97.695 L44.98,99 Z M51.545,88.11 C52.1750031,88.11 52.7174977,88.2549986 53.1725,88.545 C53.6275023,88.8350015 54.0024985,89.2324975 54.2975,89.7375 C54.5925015,90.2425025 54.8099993,90.8349966 54.95,91.515 C55.0900007,92.1950034 55.16,92.9199962 55.16,93.69 C55.16,94.4700039 55.0900007,95.1974966 54.95,95.8725 C54.8099993,96.5475034 54.5925015,97.1374975 54.2975,97.6425 C54.0024985,98.1475025 53.6275023,98.5449986 53.1725,98.835 C52.7174977,99.1250015 52.1750031,99.27 51.545,99.27 C50.9149968,99.27 50.3700023,99.1250015 49.91,98.835 C49.4499977,98.5449986 49.0725015,98.1475025 48.7775,97.6425 C48.4824985,97.1374975 48.2650007,96.5475034 48.125,95.8725 C47.9849993,95.1974966 47.915,94.4700039 47.915,93.69 C47.915,92.9199962 47.9849993,92.1950034 48.125,91.515 C48.2650007,90.8349966 48.4824985,90.2425025 48.7775,89.7375 C49.0725015,89.2324975 49.4499977,88.8350015 49.91,88.545 C50.3700023,88.2549986 50.9149968,88.11 51.545,88.11 L51.545,88.11 Z M51.545,89.325 C51.1049978,89.325 50.7450014,89.4674986 50.465,89.7525 C50.1849986,90.0375014 49.9675008,90.3974978 49.8125,90.8325 C49.6574992,91.2675022 49.5500003,91.7399975 49.49,92.25 C49.4299997,92.7600026 49.4,93.2399978 49.4,93.69 C49.4,94.1400023 49.4299997,94.6199975 49.49,95.13 C49.5500003,95.6400026 49.6574992,96.1099979 49.8125,96.54 C49.9675008,96.9700022 50.1849986,97.3274986 50.465,97.6125 C50.7450014,97.8975014 51.1049978,98.04 51.545,98.04 C51.9750021,98.04 52.3274986,97.8975014 52.6025,97.6125 C52.8775014,97.3274986 53.0949992,96.9700022 53.255,96.54 C53.4150008,96.1099979 53.5249997,95.6400026 53.585,95.13 C53.6450003,94.6199975 53.675,94.1400023 53.675,93.69 C53.675,93.2399978 53.6450003,92.7600026 53.585,92.25 C53.5249997,91.7399975 53.4150008,91.2675022 53.255,90.8325 C53.0949992,90.3974978 52.8775014,90.0375014 52.6025,89.7525 C52.3274986,89.4674986 51.9750021,89.325 51.545,89.325 L51.545,89.325 Z M62.685,99 L61.23,99 L61.23,90.15 L59.22,91.83 L58.365,90.825 L61.38,88.38 L62.685,88.38 L62.685,99 Z M73.69,95.37 L75.22,95.37 L75.22,96.615 L73.69,96.615 L73.69,99 L72.28,99 L72.28,96.615 L67.39,96.615 L67.39,95.295 L71.905,88.38 L73.69,88.38 L73.69,95.37 Z M72.28,90.045 L72.25,90.045 L68.89,95.37 L72.28,95.37 L72.28,90.045 Z" id="2014"></path>
                </g>
            </g>
        </g>
    </g>
</svg>