<?xml version="1.0" encoding="UTF-8" standalone="no"?>
<svg width="229px" height="106px" viewBox="0 0 229 106" version="1.1" xmlns="http://www.w3.org/2000/svg" xmlns:xlink="http://www.w3.org/1999/xlink" xmlns:sketch="http://www.bohemiancoding.com/sketch/ns">
    <!-- Generator: Sketch 3.2.2 (9983) - http://www.bohemiancoding.com/sketch -->
    <title>2</title>
    <desc>Created with Sketch.</desc>
    <defs></defs>
    <g id="Page-1" stroke="none" stroke-width="1" fill="none" fill-rule="evenodd" sketch:type="MSPage">
        <g id="Artboard-1" sketch:type="MSArtboardGroup" transform="translate(-1325.000000, -243.000000)" fill="#FFFFFF">
            <g id="2" sketch:type="MSLayerGroup" transform="translate(1325.000000, 243.000000)">
                <g id="Imported-Layers-+-Imported-Layers" sketch:type="MSShapeGroup">
                    <g id="Imported-Layers">
                        <path d="M35.0273487,97.0387184 C37.5073241,98.0324333 40.132115,98.7369103 42.8906947,99.1202778 C42.8860992,98.7258497 42.7656336,98.3710294 42.5696718,98.1142386 C39.7379084,97.6844935 37.0289084,96.8418366 34.4354504,95.743049 C34.3890705,95.7235296 34.3427369,95.7038985 34.2964499,95.6841557 L34.2964499,95.6841557 C34.2885462,95.6590625 34.2801509,95.635302 34.2729695,95.6139935 C34.1347786,95.076317 34.0077481,94.3845 33.9164962,94.2296993 C34.1278855,92.5985163 34.1081908,91.0485294 33.6801603,89.4265882 C33.265916,87.8716503 32.5283511,86.3315654 31.7441756,85.2123137 C30.5966336,83.4900327 28.8145954,82.087585 27.2436183,81.2875065 C27.1569618,81.2607712 27.0699771,81.2148922 26.9898855,81.1957484 C27.0233664,81.3594608 27.0699771,81.5083203 27.09,81.6773137 C27.7248244,85.223866 27.9010916,88.7288301 29.5364046,91.7093203 C30.7193969,93.4411732 32.5217863,94.7627549 33.5577252,94.5165261 C33.7084311,94.8356723 33.7528495,95.1592512 33.8308842,95.4811262 C30.1894872,93.858133 26.8433934,91.5410419 23.8767887,88.6640499 C23.8798854,88.6111557 23.8781231,88.555945 23.8817405,88.5080163 C23.8817405,87.9482255 23.8505573,87.1167908 23.819374,86.9019183 C24.4679847,85.3829575 24.8152672,83.8996438 24.8352901,82.123232 C24.8464504,80.436268 24.6170076,78.6753693 24.1893053,77.2537778 C23.5699084,75.0773268 22.2644809,72.8609379 20.9587252,71.4294444 C20.8940611,71.3621111 20.8097023,71.295768 20.7427405,71.2244739 C20.7315802,71.4079902 20.738145,71.5829248 20.7115573,71.7463072 C20.3216031,75.5390882 19.5039466,79.2453922 20.2526718,82.8467353 C20.9075191,85.0891993 22.3179847,86.7157614 23.3851069,87.0550686 C23.4519264,87.4567226 23.4559588,87.8637775 23.468993,88.2626632 L23.468993,88.2626632 C20.7083881,85.504996 18.2877712,82.2562711 16.277451,78.628564 C16.3001914,78.5676085 16.3134494,78.4939075 16.3314656,78.4334314 C16.4696565,77.9102778 16.5674733,77.037915 16.583229,76.8484575 C17.5791221,75.5961895 18.2720458,74.2663562 18.7355267,72.5929248 C19.1809542,70.9518399 19.3946412,69.1856601 19.3434351,67.6624085 C19.2879618,65.3380882 18.6104656,62.7606078 17.7215802,60.9191732 C17.6680763,60.8419379 17.6303282,60.7485294 17.5791221,60.6679935 C17.5167557,60.8313758 17.4655496,60.9950882 17.4251756,61.1495588 C16.0931603,64.6545229 14.433229,68.0274608 14.2661527,71.7529085 C14.4155038,74.2105752 15.1639008,76.2210033 16.126313,76.8329444 C16.0974602,77.2292846 16.0450198,77.6643844 15.976174,78.0763389 L15.976174,78.0763389 C13.891841,74.1953916 12.2713868,69.895985 11.1982484,65.3111219 C11.4609848,65.104174 11.9036961,63.8423687 11.9891221,63.5927026 C13.2768244,62.7648987 14.3130916,61.7555588 15.1862214,60.2828072 C16.0304656,58.8859706 16.6856412,57.2607288 17.057542,55.7817059 C17.6126031,53.565317 17.6303282,50.8442582 17.2761527,48.7968627 C17.2538321,48.6948725 17.240374,48.586281 17.2091908,48.4833007 C17.1090763,48.6176373 17.0174962,48.7565948 16.9193511,48.8952222 C14.8566641,51.8057386 12.2897939,54.4469216 11.138313,57.9571667 C10.4430916,60.3475 10.7391679,62.6431046 11.5971985,63.4593562 C11.4345344,63.8725622 11.2453299,64.3215066 11.066353,64.7338019 L11.066353,64.7338019 C10.134251,60.551789 9.65572126,56.1392976 9.69311252,51.5957144 L9.69311252,51.5957144 C9.97750563,51.4811288 10.6024931,50.4471675 10.719145,50.2438693 C12.113855,49.8339281 13.3014427,49.1866699 14.433229,48.0373824 C15.5161069,46.919451 16.4604656,45.5638725 17.0998855,44.2099444 C18.0892137,42.213049 18.635084,39.5540425 18.6951527,37.4297418 C18.706313,37.3062974 18.6951527,37.1993562 18.6839924,37.0953856 C18.5681221,37.2095882 18.4568473,37.3119085 18.3432748,37.4244608 C15.7878931,39.5853987 13.1586565,41.0934673 11.352,44.1841993 C10.2202137,46.303549 9.99536641,48.5189477 10.4696794,50.0547418 C10.2520204,50.3909717 9.965942,50.6691987 9.70147402,50.9721538 C9.71362766,50.3182202 9.73647179,49.6616788 9.77019084,49.0028235 C9.9519963,45.1438691 10.5197138,41.2959403 11.4358755,37.550527 C11.7470277,37.4960575 12.50878,36.7687765 12.6577557,36.6299935 C14.0074962,36.7009575 15.235458,36.4765131 16.5162672,35.7728137 C17.7461985,35.1103725 18.9268931,34.1251275 19.8026489,33.0936732 C21.1550153,31.5585392 22.2644809,29.2804281 22.8123206,27.3353529 C22.8435038,27.2330327 22.8658244,27.1300523 22.8904427,27.027402 C22.7499542,27.0788922 22.6209542,27.1505163 22.4939237,27.2072876 C19.6867786,28.3879314 16.5986565,29.1510425 14.2661527,31.4199118 C12.7513053,33.0207288 12.3725115,34.7100033 12.486084,36.3880556 C12.2099803,36.6021422 11.879921,36.7726604 11.5799272,36.9737191 L11.5799272,36.9737191 C12.6219492,32.8854583 14.0792193,28.9256826 15.9025866,25.2144099 L15.9025866,25.2144099 C15.9043211,25.2166151 15.9061355,25.2186895 15.9080305,25.2206242 C16.0573817,25.3952288 17.0778931,24.8671242 17.2561298,24.7690948 C18.4568473,25.2318464 19.5863359,25.3744346 20.883229,25.1291961 C22.1262901,24.8829673 23.375916,24.3641046 24.3875649,23.6815294 C25.9070076,22.7015654 27.3818092,20.9875359 28.3022061,19.4009118 C28.3353588,19.3187255 28.3777023,19.2411601 28.4177481,19.164585 C28.295313,19.1764673 28.1728779,19.1857092 28.034687,19.1959412 C25.2945038,19.4425 22.3757557,19.2160752 19.8134809,20.5815556 C18.1292595,21.5578889 17.2915802,22.9788203 17.1514198,24.4925 C16.8270801,24.6398556 16.4328172,24.7288849 16.0830697,24.8502591 C17.6763922,21.6634226 19.5408627,18.6643786 21.6449443,15.930135 L21.6449443,15.930135 C21.8380774,16.1001819 22.8129042,15.8422075 22.9816947,15.7734935 C24.1092137,16.5227418 25.214084,16.8247516 26.5106489,16.8561078 C27.7494427,16.897366 29.0151527,16.6511373 30.0622519,16.2038987 C31.6329008,15.5632418 33.2301374,14.2740065 34.2618092,12.8626471 C34.3195802,12.7854118 34.3796489,12.7243497 34.4154275,12.6431536 C34.2929924,12.6375425 34.1548015,12.6273105 34.0346641,12.6015654 C31.5813664,12.2579673 29.2912061,11.6166503 27.2124351,12.0364935 C25.4835725,12.3965948 23.5899313,13.3296895 22.9170305,15.4761046 C22.5972523,15.5425152 22.2345191,15.5735415 21.8953969,15.6073722 C23.490198,13.5691718 25.2195146,11.6821211 27.0699771,9.97886601 C27.1080534,9.91780392 27.09,9.94321895 27.0387939,9.91285294 C27.1211832,9.94321895 27.1257786,9.91780392 27.2748015,9.82472549 C27.5712061,9.55275163 27.8164046,9.3834281 28.1128092,9.11112418 C29.7812748,9.12300654 31.3588168,8.62988889 32.8536412,7.6245098 C33.5176794,7.17166013 34.1790916,6.63299346 34.7361221,5.98606536 C36.0641985,4.54962092 37.1355878,2.45040523 37.6256565,0.526124183 C37.6502748,0.417862745 37.6702977,0.341287582 37.6771908,0.233686275 C37.5547557,0.285176471 37.440855,0.341287582 37.3184198,0.398388889 C34.6248473,1.48100327 32.0271221,1.98897386 29.8639924,4.09182026 C28.4000229,5.49393791 27.6312748,7.19707516 27.9388397,8.85037255 C27.6069847,9.11706536 27.2547786,9.36329412 26.9383511,9.67652614 C26.8916245,9.71096238 26.8747816,9.7457956 26.8763494,9.77775613 L26.8763494,9.77775613 C26.8644241,9.76990795 26.8458115,9.78580318 26.8205115,9.81548366 C24.4033728,12.1115046 22.1793807,14.6240652 20.1839625,17.328828 L20.1839625,17.328828 C20.2385781,16.9328793 20.2732199,16.5614082 20.3439237,16.1322745 C22.3980763,13.9363497 23.5587481,11.7598987 24.2047328,8.79393137 C24.855313,5.68867647 24.7640611,3.21549673 24.4788168,1.48100327 C24.4476336,1.2710817 24.3921603,1.05983987 24.3340611,0.843647059 C22.529374,2.29197386 21.2574275,4.20074183 20.1745496,6.38082353 C19.6086565,7.55717647 19.149771,8.77313725 18.936084,10.0970294 C18.4880305,12.0322026 18.6173588,14.8806667 20.0521145,16.0454673 C20.0009084,16.2966471 19.8761756,17.1637288 19.8604198,17.3488954 C19.8189361,17.5149487 19.7804684,17.6814353 19.8549694,17.7793851 C17.5182021,21.0128006 15.5057902,24.5147467 13.8768588,28.2446065 C13.8924176,27.8552561 13.905141,27.4429032 13.9208397,27.1092582 C15.391374,24.5994412 16.1755496,21.8754118 16.2132977,18.7444118 C16.2713969,15.1315163 15.377916,12.836902 14.6692366,11.3859346 C14.575687,11.190866 14.4801679,10.9954673 14.3843206,10.8056797 C13.6067099,11.7549477 12.8737405,13.5617255 12.5418855,14.6859281 C11.8620916,16.9389542 11.3720229,19.2834085 11.3119542,21.6602092 C11.2607481,23.7280686 11.7485191,26.0365458 13.4796794,27.3706699 C13.4662214,27.5756405 13.4284733,28.5826699 13.417313,28.7216275 C13.3948397,28.8687708 13.3991892,29.0506775 13.493585,29.1434632 L13.493585,29.1434632 C12.042723,32.6298452 10.9245537,36.3087664 10.1859846,40.1480033 L10.1859846,40.1480033 C10.1096284,39.7752873 10.0206594,39.384334 9.9530229,39.0054739 C10.6167328,36.5676111 10.9800992,34.3413203 10.8619313,31.9486765 C10.6790992,28.593232 9.43144275,25.6833758 7.4731374,23.3316601 C7.32608397,23.1580458 7.20364885,22.9831111 7.07005344,22.8246797 C6.51761832,23.9782582 6.15654962,25.9593105 6.0541374,27.1399542 C5.85128244,29.552732 5.86014504,31.9744216 6.27898473,34.3258072 C6.6420229,36.3319444 7.53780153,38.3588758 9.53385496,39.2302484 C9.55617557,39.4414902 9.78364885,40.4165033 9.81253435,40.5653627 C9.81253435,40.7534614 9.87011693,40.96516 10.0320634,40.9815183 C9.76642477,42.4824392 9.55862592,44.0072203 9.41141985,45.5539706 C9.18201708,48.0237347 9.05300262,50.458899 9.04589969,52.8481004 C8.91814496,52.6101838 8.78562671,52.3733572 8.65612977,52.1024673 C8.85668702,48.6489935 8.65612977,46.1230033 7.34183969,43.2751993 C5.85128244,39.9953399 3.78826718,38.1179281 2.52715267,37.1937451 C2.36893893,37.0561078 2.19529771,36.9415752 2.01246565,36.8253922 C1.72754962,38.1581961 1.81223664,40.2372778 1.99244275,41.4380556 C2.32232824,43.8907712 2.84817557,46.0121013 3.81945038,48.2076961 C4.65483206,50.0851078 6.14538931,52.1536275 8.33083969,52.2915948 C8.40009924,52.4820425 8.79891603,53.3903824 8.85668702,53.5339608 C8.88584412,53.6611529 8.95490907,53.7970749 9.05016319,53.850497 L9.05016319,53.850497 C9.09965752,58.1250139 9.55346279,62.2456242 10.5368877,66.146173 C10.3955597,65.972041 10.249418,65.7952022 10.0954809,65.6143529 C9.46262595,62.2216111 8.53369466,59.968915 6.59114504,57.6815621 C4.34989313,55.0628235 2.04364885,53.8891111 0.624648855,53.4006144 C0.412931298,53.3388922 0.225832061,53.287402 0.0210076336,53.2256797 C-0.119480916,54.5340588 0.479564885,56.4385359 0.949938931,57.5373235 C1.8631145,59.7540425 2.85474046,61.7030784 4.40077099,63.4798203 C5.66648092,64.9895392 7.66712977,66.4659216 9.83025954,65.892268 C9.93726718,66.0648922 10.5143206,66.8983072 10.5924427,67.0260425 C10.6496419,67.1207872 10.7377029,67.2137686 10.829697,67.2450083 L10.829697,67.2450083 C10.9109145,67.5339495 10.9951685,67.8216216 11.0825115,68.1079967 C12.3715099,72.2993816 14.0474968,76.2081287 16.0797596,79.7454674 L16.0797573,79.7454633 C15.8517184,79.6239292 15.618747,79.5045687 15.391374,79.3576144 C13.9208397,76.2883366 12.3367328,74.214866 9.91724427,72.6869935 C7.14587786,70.9003497 4.83536641,70.8689935 3.34480916,70.8689935 C3.1330916,70.8689935 2.93483206,70.8792255 2.7231145,70.8858268 C3.09534351,73.9194575 6.81796183,77.9205098 8.89476336,79.214366 C10.4542519,80.2415294 13.2613969,81.0198235 15.1908168,79.7527026 C15.3398397,79.8705359 16.1486336,80.3478105 16.2402137,80.436268 C16.333303,80.5324036 16.4609761,80.6083469 16.5690403,80.5784493 C18.6676204,84.0732642 21.1234784,87.1859722 23.9054536,89.8265073 L23.9054536,89.8265073 C23.6806692,89.8062887 23.4521631,89.7871553 23.2180305,89.7447712 C21.1927634,87.3633497 19.278771,86.0189935 16.5274275,85.5159739 C13.3368931,84.9367092 10.6324885,85.7523007 9.202,86.3573105 C9.00374046,86.4289346 8.79891603,86.516402 8.62067939,86.6141013 C9.13733588,87.7729608 10.6367557,88.9595458 11.5679847,89.5298987 C13.3572443,90.7145033 15.208542,91.5772941 17.3851298,91.9400359 C19.1809542,92.3007974 21.6247328,92.2133301 23.1468015,90.2732059 C23.5298626,90.329317 24.153855,90.4322974 24.5546412,90.4580425 C24.5658297,90.4590898 24.5767809,90.4592207 24.587474,90.4584522 C27.4659193,93.0616283 30.6780543,95.170383 34.1912487,96.6904034 C33.9539304,96.742374 33.7096466,96.7932449 33.4464504,96.8217026 C30.7706031,95.2264967 28.607145,94.5076144 25.8,94.9175556 C22.5651527,95.3799771 20.2214885,97.0121503 18.9561069,98.0482255 C18.7709771,98.2017059 18.5973359,98.3350523 18.4302595,98.4994248 C19.2121374,99.4651961 20.9587252,100.105853 21.9880992,100.377167 C24.0199313,100.952801 26.0205802,101.173614 28.2441069,100.85081 C30.0822748,100.604252 32.477145,99.7520229 33.5219466,97.3808333 C33.8895802,97.272902 34.542458,97.1956667 34.9389771,97.0837745 C34.9732801,97.0774559 35.002734,97.0618727 35.0273487,97.0387184 Z" id="Fill-1"></path>
                    </g>
                    <g id="Imported-Layers" transform="translate(207.500000, 50.500000) scale(-1, 1) translate(-207.500000, -50.500000) translate(186.000000, 0.000000)">
                        <path d="M35.0273487,97.0387184 C37.5073241,98.0324333 40.132115,98.7369103 42.8906947,99.1202778 C42.8860992,98.7258497 42.7656336,98.3710294 42.5696718,98.1142386 C39.7379084,97.6844935 37.0289084,96.8418366 34.4354504,95.743049 C34.3890705,95.7235296 34.3427369,95.7038985 34.2964499,95.6841557 L34.2964499,95.6841557 C34.2885462,95.6590625 34.2801509,95.635302 34.2729695,95.6139935 C34.1347786,95.076317 34.0077481,94.3845 33.9164962,94.2296993 C34.1278855,92.5985163 34.1081908,91.0485294 33.6801603,89.4265882 C33.265916,87.8716503 32.5283511,86.3315654 31.7441756,85.2123137 C30.5966336,83.4900327 28.8145954,82.087585 27.2436183,81.2875065 C27.1569618,81.2607712 27.0699771,81.2148922 26.9898855,81.1957484 C27.0233664,81.3594608 27.0699771,81.5083203 27.09,81.6773137 C27.7248244,85.223866 27.9010916,88.7288301 29.5364046,91.7093203 C30.7193969,93.4411732 32.5217863,94.7627549 33.5577252,94.5165261 C33.7084311,94.8356723 33.7528495,95.1592512 33.8308842,95.4811262 C30.1894872,93.858133 26.8433934,91.5410419 23.8767887,88.6640499 C23.8798854,88.6111557 23.8781231,88.555945 23.8817405,88.5080163 C23.8817405,87.9482255 23.8505573,87.1167908 23.819374,86.9019183 C24.4679847,85.3829575 24.8152672,83.8996438 24.8352901,82.123232 C24.8464504,80.436268 24.6170076,78.6753693 24.1893053,77.2537778 C23.5699084,75.0773268 22.2644809,72.8609379 20.9587252,71.4294444 C20.8940611,71.3621111 20.8097023,71.295768 20.7427405,71.2244739 C20.7315802,71.4079902 20.738145,71.5829248 20.7115573,71.7463072 C20.3216031,75.5390882 19.5039466,79.2453922 20.2526718,82.8467353 C20.9075191,85.0891993 22.3179847,86.7157614 23.3851069,87.0550686 C23.4519264,87.4567226 23.4559588,87.8637775 23.468993,88.2626632 L23.468993,88.2626632 C20.7083881,85.504996 18.2877712,82.2562711 16.277451,78.628564 C16.3001914,78.5676085 16.3134494,78.4939075 16.3314656,78.4334314 C16.4696565,77.9102778 16.5674733,77.037915 16.583229,76.8484575 C17.5791221,75.5961895 18.2720458,74.2663562 18.7355267,72.5929248 C19.1809542,70.9518399 19.3946412,69.1856601 19.3434351,67.6624085 C19.2879618,65.3380882 18.6104656,62.7606078 17.7215802,60.9191732 C17.6680763,60.8419379 17.6303282,60.7485294 17.5791221,60.6679935 C17.5167557,60.8313758 17.4655496,60.9950882 17.4251756,61.1495588 C16.0931603,64.6545229 14.433229,68.0274608 14.2661527,71.7529085 C14.4155038,74.2105752 15.1639008,76.2210033 16.126313,76.8329444 C16.0974602,77.2292846 16.0450198,77.6643844 15.976174,78.0763389 L15.976174,78.0763389 C13.891841,74.1953916 12.2713868,69.895985 11.1982484,65.3111219 C11.4609848,65.104174 11.9036961,63.8423687 11.9891221,63.5927026 C13.2768244,62.7648987 14.3130916,61.7555588 15.1862214,60.2828072 C16.0304656,58.8859706 16.6856412,57.2607288 17.057542,55.7817059 C17.6126031,53.565317 17.6303282,50.8442582 17.2761527,48.7968627 C17.2538321,48.6948725 17.240374,48.586281 17.2091908,48.4833007 C17.1090763,48.6176373 17.0174962,48.7565948 16.9193511,48.8952222 C14.8566641,51.8057386 12.2897939,54.4469216 11.138313,57.9571667 C10.4430916,60.3475 10.7391679,62.6431046 11.5971985,63.4593562 C11.4345344,63.8725622 11.2453299,64.3215066 11.066353,64.7338019 L11.066353,64.7338019 C10.134251,60.551789 9.65572126,56.1392976 9.69311252,51.5957144 L9.69311252,51.5957144 C9.97750563,51.4811288 10.6024931,50.4471675 10.719145,50.2438693 C12.113855,49.8339281 13.3014427,49.1866699 14.433229,48.0373824 C15.5161069,46.919451 16.4604656,45.5638725 17.0998855,44.2099444 C18.0892137,42.213049 18.635084,39.5540425 18.6951527,37.4297418 C18.706313,37.3062974 18.6951527,37.1993562 18.6839924,37.0953856 C18.5681221,37.2095882 18.4568473,37.3119085 18.3432748,37.4244608 C15.7878931,39.5853987 13.1586565,41.0934673 11.352,44.1841993 C10.2202137,46.303549 9.99536641,48.5189477 10.4696794,50.0547418 C10.2520204,50.3909717 9.965942,50.6691987 9.70147402,50.9721538 C9.71362766,50.3182202 9.73647179,49.6616788 9.77019084,49.0028235 C9.9519963,45.1438691 10.5197138,41.2959403 11.4358755,37.550527 C11.7470277,37.4960575 12.50878,36.7687765 12.6577557,36.6299935 C14.0074962,36.7009575 15.235458,36.4765131 16.5162672,35.7728137 C17.7461985,35.1103725 18.9268931,34.1251275 19.8026489,33.0936732 C21.1550153,31.5585392 22.2644809,29.2804281 22.8123206,27.3353529 C22.8435038,27.2330327 22.8658244,27.1300523 22.8904427,27.027402 C22.7499542,27.0788922 22.6209542,27.1505163 22.4939237,27.2072876 C19.6867786,28.3879314 16.5986565,29.1510425 14.2661527,31.4199118 C12.7513053,33.0207288 12.3725115,34.7100033 12.486084,36.3880556 C12.2099803,36.6021422 11.879921,36.7726604 11.5799272,36.9737191 L11.5799272,36.9737191 C12.6219492,32.8854583 14.0792193,28.9256826 15.9025866,25.2144099 L15.9025866,25.2144099 C15.9043211,25.2166151 15.9061355,25.2186895 15.9080305,25.2206242 C16.0573817,25.3952288 17.0778931,24.8671242 17.2561298,24.7690948 C18.4568473,25.2318464 19.5863359,25.3744346 20.883229,25.1291961 C22.1262901,24.8829673 23.375916,24.3641046 24.3875649,23.6815294 C25.9070076,22.7015654 27.3818092,20.9875359 28.3022061,19.4009118 C28.3353588,19.3187255 28.3777023,19.2411601 28.4177481,19.164585 C28.295313,19.1764673 28.1728779,19.1857092 28.034687,19.1959412 C25.2945038,19.4425 22.3757557,19.2160752 19.8134809,20.5815556 C18.1292595,21.5578889 17.2915802,22.9788203 17.1514198,24.4925 C16.8270801,24.6398556 16.4328172,24.7288849 16.0830697,24.8502591 C17.6763922,21.6634226 19.5408627,18.6643786 21.6449443,15.930135 L21.6449443,15.930135 C21.8380774,16.1001819 22.8129042,15.8422075 22.9816947,15.7734935 C24.1092137,16.5227418 25.214084,16.8247516 26.5106489,16.8561078 C27.7494427,16.897366 29.0151527,16.6511373 30.0622519,16.2038987 C31.6329008,15.5632418 33.2301374,14.2740065 34.2618092,12.8626471 C34.3195802,12.7854118 34.3796489,12.7243497 34.4154275,12.6431536 C34.2929924,12.6375425 34.1548015,12.6273105 34.0346641,12.6015654 C31.5813664,12.2579673 29.2912061,11.6166503 27.2124351,12.0364935 C25.4835725,12.3965948 23.5899313,13.3296895 22.9170305,15.4761046 C22.5972523,15.5425152 22.2345191,15.5735415 21.8953969,15.6073722 C23.490198,13.5691718 25.2195146,11.6821211 27.0699771,9.97886601 C27.1080534,9.91780392 27.09,9.94321895 27.0387939,9.91285294 C27.1211832,9.94321895 27.1257786,9.91780392 27.2748015,9.82472549 C27.5712061,9.55275163 27.8164046,9.3834281 28.1128092,9.11112418 C29.7812748,9.12300654 31.3588168,8.62988889 32.8536412,7.6245098 C33.5176794,7.17166013 34.1790916,6.63299346 34.7361221,5.98606536 C36.0641985,4.54962092 37.1355878,2.45040523 37.6256565,0.526124183 C37.6502748,0.417862745 37.6702977,0.341287582 37.6771908,0.233686275 C37.5547557,0.285176471 37.440855,0.341287582 37.3184198,0.398388889 C34.6248473,1.48100327 32.0271221,1.98897386 29.8639924,4.09182026 C28.4000229,5.49393791 27.6312748,7.19707516 27.9388397,8.85037255 C27.6069847,9.11706536 27.2547786,9.36329412 26.9383511,9.67652614 C26.8916245,9.71096238 26.8747816,9.7457956 26.8763494,9.77775613 L26.8763494,9.77775613 C26.8644241,9.76990795 26.8458115,9.78580318 26.8205115,9.81548366 C24.4033728,12.1115046 22.1793807,14.6240652 20.1839625,17.328828 L20.1839625,17.328828 C20.2385781,16.9328793 20.2732199,16.5614082 20.3439237,16.1322745 C22.3980763,13.9363497 23.5587481,11.7598987 24.2047328,8.79393137 C24.855313,5.68867647 24.7640611,3.21549673 24.4788168,1.48100327 C24.4476336,1.2710817 24.3921603,1.05983987 24.3340611,0.843647059 C22.529374,2.29197386 21.2574275,4.20074183 20.1745496,6.38082353 C19.6086565,7.55717647 19.149771,8.77313725 18.936084,10.0970294 C18.4880305,12.0322026 18.6173588,14.8806667 20.0521145,16.0454673 C20.0009084,16.2966471 19.8761756,17.1637288 19.8604198,17.3488954 C19.8189361,17.5149487 19.7804684,17.6814353 19.8549694,17.7793851 C17.5182021,21.0128006 15.5057902,24.5147467 13.8768588,28.2446065 C13.8924176,27.8552561 13.905141,27.4429032 13.9208397,27.1092582 C15.391374,24.5994412 16.1755496,21.8754118 16.2132977,18.7444118 C16.2713969,15.1315163 15.377916,12.836902 14.6692366,11.3859346 C14.575687,11.190866 14.4801679,10.9954673 14.3843206,10.8056797 C13.6067099,11.7549477 12.8737405,13.5617255 12.5418855,14.6859281 C11.8620916,16.9389542 11.3720229,19.2834085 11.3119542,21.6602092 C11.2607481,23.7280686 11.7485191,26.0365458 13.4796794,27.3706699 C13.4662214,27.5756405 13.4284733,28.5826699 13.417313,28.7216275 C13.3948397,28.8687708 13.3991892,29.0506775 13.493585,29.1434632 L13.493585,29.1434632 C12.042723,32.6298452 10.9245537,36.3087664 10.1859846,40.1480033 L10.1859846,40.1480033 C10.1096284,39.7752873 10.0206594,39.384334 9.9530229,39.0054739 C10.6167328,36.5676111 10.9800992,34.3413203 10.8619313,31.9486765 C10.6790992,28.593232 9.43144275,25.6833758 7.4731374,23.3316601 C7.32608397,23.1580458 7.20364885,22.9831111 7.07005344,22.8246797 C6.51761832,23.9782582 6.15654962,25.9593105 6.0541374,27.1399542 C5.85128244,29.552732 5.86014504,31.9744216 6.27898473,34.3258072 C6.6420229,36.3319444 7.53780153,38.3588758 9.53385496,39.2302484 C9.55617557,39.4414902 9.78364885,40.4165033 9.81253435,40.5653627 C9.81253435,40.7534614 9.87011693,40.96516 10.0320634,40.9815183 C9.76642477,42.4824392 9.55862592,44.0072203 9.41141985,45.5539706 C9.18201708,48.0237347 9.05300262,50.458899 9.04589969,52.8481004 C8.91814496,52.6101838 8.78562671,52.3733572 8.65612977,52.1024673 C8.85668702,48.6489935 8.65612977,46.1230033 7.34183969,43.2751993 C5.85128244,39.9953399 3.78826718,38.1179281 2.52715267,37.1937451 C2.36893893,37.0561078 2.19529771,36.9415752 2.01246565,36.8253922 C1.72754962,38.1581961 1.81223664,40.2372778 1.99244275,41.4380556 C2.32232824,43.8907712 2.84817557,46.0121013 3.81945038,48.2076961 C4.65483206,50.0851078 6.14538931,52.1536275 8.33083969,52.2915948 C8.40009924,52.4820425 8.79891603,53.3903824 8.85668702,53.5339608 C8.88584412,53.6611529 8.95490907,53.7970749 9.05016319,53.850497 L9.05016319,53.850497 C9.09965752,58.1250139 9.55346279,62.2456242 10.5368877,66.146173 C10.3955597,65.972041 10.249418,65.7952022 10.0954809,65.6143529 C9.46262595,62.2216111 8.53369466,59.968915 6.59114504,57.6815621 C4.34989313,55.0628235 2.04364885,53.8891111 0.624648855,53.4006144 C0.412931298,53.3388922 0.225832061,53.287402 0.0210076336,53.2256797 C-0.119480916,54.5340588 0.479564885,56.4385359 0.949938931,57.5373235 C1.8631145,59.7540425 2.85474046,61.7030784 4.40077099,63.4798203 C5.66648092,64.9895392 7.66712977,66.4659216 9.83025954,65.892268 C9.93726718,66.0648922 10.5143206,66.8983072 10.5924427,67.0260425 C10.6496419,67.1207872 10.7377029,67.2137686 10.829697,67.2450083 L10.829697,67.2450083 C10.9109145,67.5339495 10.9951685,67.8216216 11.0825115,68.1079967 C12.3715099,72.2993816 14.0474968,76.2081287 16.0797596,79.7454674 L16.0797573,79.7454633 C15.8517184,79.6239292 15.618747,79.5045687 15.391374,79.3576144 C13.9208397,76.2883366 12.3367328,74.214866 9.91724427,72.6869935 C7.14587786,70.9003497 4.83536641,70.8689935 3.34480916,70.8689935 C3.1330916,70.8689935 2.93483206,70.8792255 2.7231145,70.8858268 C3.09534351,73.9194575 6.81796183,77.9205098 8.89476336,79.214366 C10.4542519,80.2415294 13.2613969,81.0198235 15.1908168,79.7527026 C15.3398397,79.8705359 16.1486336,80.3478105 16.2402137,80.436268 C16.333303,80.5324036 16.4609761,80.6083469 16.5690403,80.5784493 C18.6676204,84.0732642 21.1234784,87.1859722 23.9054536,89.8265073 L23.9054536,89.8265073 C23.6806692,89.8062887 23.4521631,89.7871553 23.2180305,89.7447712 C21.1927634,87.3633497 19.278771,86.0189935 16.5274275,85.5159739 C13.3368931,84.9367092 10.6324885,85.7523007 9.202,86.3573105 C9.00374046,86.4289346 8.79891603,86.516402 8.62067939,86.6141013 C9.13733588,87.7729608 10.6367557,88.9595458 11.5679847,89.5298987 C13.3572443,90.7145033 15.208542,91.5772941 17.3851298,91.9400359 C19.1809542,92.3007974 21.6247328,92.2133301 23.1468015,90.2732059 C23.5298626,90.329317 24.153855,90.4322974 24.5546412,90.4580425 C24.5658297,90.4590898 24.5767809,90.4592207 24.587474,90.4584522 C27.4659193,93.0616283 30.6780543,95.170383 34.1912487,96.6904034 C33.9539304,96.742374 33.7096466,96.7932449 33.4464504,96.8217026 C30.7706031,95.2264967 28.607145,94.5076144 25.8,94.9175556 C22.5651527,95.3799771 20.2214885,97.0121503 18.9561069,98.0482255 C18.7709771,98.2017059 18.5973359,98.3350523 18.4302595,98.4994248 C19.2121374,99.4651961 20.9587252,100.105853 21.9880992,100.377167 C24.0199313,100.952801 26.0205802,101.173614 28.2441069,100.85081 C30.0822748,100.604252 32.477145,99.7520229 33.5219466,97.3808333 C33.8895802,97.272902 34.542458,97.1956667 34.9389771,97.0837745 C34.9732801,97.0774559 35.002734,97.0618727 35.0273487,97.0387184 Z" id="Fill-1"></path>
                    </g>
                </g>
                
                  
                </g>
            </g>
        </g>
    </g>
</svg>